<svg id="svg" version="1.1" xmlns="http://www.w3.org/2000/svg" xmlns:xlink="http://www.w3.org/1999/xlink" width="150" height="61.24197002141327" viewBox="0, 0, 400,61.24197002141327"><g id="svgg"><path id="path0" d="M77.833 6.292 C 77.833 6.360,77.832 17.479,77.831 31.000 L 77.829 55.583 82.664 55.628 L 87.500 55.672 87.500 45.453 C 87.500 33.776,87.327 34.831,89.242 34.839 C 96.430 34.869,96.459 34.894,106.328 49.625 L 110.375 55.667 116.188 55.667 C 119.986 55.667,122.000 55.608,122.000 55.498 C 122.000 55.406,121.601 54.712,121.114 53.957 C 120.627 53.201,120.008 52.229,119.739 51.796 C 111.990 39.317,110.728 37.677,106.783 34.975 C 105.333 33.982,105.073 33.505,105.979 33.498 C 106.997 33.491,110.314 32.392,111.760 31.584 C 119.159 27.446,120.487 16.386,114.333 10.149 C 112.010 7.795,109.853 6.960,104.677 6.410 C 102.226 6.150,77.834 6.042,77.833 6.292 M190.000 14.907 C 190.000 21.087,189.946 23.680,189.817 23.760 C 189.715 23.823,189.177 23.435,188.608 22.888 C 180.729 15.313,167.790 19.556,165.171 30.574 C 164.469 33.529,164.430 33.904,164.433 37.667 C 164.439 45.479,166.813 50.855,171.691 54.099 C 177.414 57.906,185.578 56.733,189.598 51.526 C 190.515 50.338,190.577 50.439,190.629 53.222 L 190.676 55.667 195.004 55.667 L 199.333 55.667 199.333 30.917 L 199.333 6.167 194.667 6.167 L 190.000 6.167 190.000 14.907 M208.944 6.278 C 208.708 6.515,208.819 14.447,209.062 14.649 C 209.224 14.783,210.583 14.826,213.687 14.794 L 218.083 14.750 218.128 10.458 L 218.172 6.167 213.614 6.167 C 211.107 6.167,209.006 6.217,208.944 6.278 M346.672 6.539 C 346.585 6.747,346.319 7.442,346.081 8.083 C 345.842 8.725,345.506 9.587,345.333 10.000 C 345.161 10.412,344.825 11.275,344.586 11.917 C 344.348 12.558,344.011 13.421,343.837 13.833 C 343.664 14.246,343.147 15.558,342.689 16.750 C 342.232 17.942,341.433 20.004,340.914 21.333 C 340.395 22.662,339.710 24.425,339.391 25.250 C 337.936 29.010,337.881 29.152,335.754 34.583 C 335.323 35.683,334.636 37.446,334.228 38.500 C 333.820 39.554,333.377 40.663,333.243 40.964 C 333.110 41.265,333.000 41.585,333.000 41.674 C 333.000 41.764,332.855 42.155,332.679 42.543 C 332.502 42.932,332.172 43.737,331.945 44.333 C 331.719 44.929,330.663 47.646,329.600 50.370 C 328.537 53.094,327.667 55.400,327.667 55.495 C 327.667 55.609,329.390 55.667,332.808 55.667 L 337.949 55.667 338.206 55.042 C 338.447 54.453,338.994 52.978,339.673 51.083 C 339.837 50.625,340.175 49.688,340.424 49.000 C 340.674 48.313,341.012 47.375,341.177 46.917 C 341.341 46.458,341.618 45.708,341.792 45.250 L 342.108 44.417 352.033 44.374 C 359.852 44.340,361.990 44.375,362.112 44.540 C 362.248 44.724,362.967 46.532,364.250 49.917 C 365.491 53.193,366.052 54.645,366.260 55.125 L 366.495 55.667 371.747 55.667 C 376.069 55.667,377.000 55.626,377.000 55.440 C 377.000 55.271,372.316 43.427,370.334 38.583 C 370.222 38.308,369.990 37.746,369.820 37.333 C 369.650 36.921,367.866 32.458,365.855 27.417 C 363.844 22.375,361.971 17.688,361.694 17.000 C 361.417 16.313,360.591 14.250,359.860 12.417 C 359.129 10.583,358.271 8.446,357.953 7.667 L 357.376 6.250 352.102 6.206 L 346.828 6.162 346.672 6.539 M382.500 30.919 L 382.500 55.672 387.375 55.628 L 392.250 55.583 392.292 30.875 L 392.334 6.167 387.417 6.167 L 382.500 6.167 382.500 30.919 M13.676 13.729 C 9.419 17.605,5.906 20.865,5.870 20.972 C 5.822 21.117,7.029 21.167,10.648 21.167 C 14.461 21.167,15.469 21.211,15.395 21.375 C 15.343 21.490,14.764 22.065,14.108 22.654 C 7.054 28.991,5.023 30.921,5.295 31.029 C 5.454 31.092,7.927 31.149,10.792 31.155 C 13.656 31.161,16.000 31.226,16.000 31.299 C 16.000 31.371,14.106 33.152,11.792 35.257 C 9.477 37.361,7.171 39.475,6.667 39.955 L 5.750 40.827 31.113 40.830 L 56.476 40.833 61.446 36.308 C 64.180 33.818,67.711 30.612,69.293 29.183 L 72.170 26.583 67.133 26.539 C 64.362 26.515,62.032 26.432,61.955 26.355 C 61.878 26.278,62.250 25.802,62.782 25.299 C 64.148 24.006,67.916 20.564,70.209 18.514 C 71.278 17.559,72.113 16.715,72.066 16.639 C 72.019 16.563,69.662 16.500,66.829 16.500 C 62.770 16.500,61.696 16.456,61.768 16.292 C 61.819 16.177,64.179 13.984,67.013 11.417 C 69.848 8.851,72.167 6.732,72.167 6.709 C 72.167 6.686,60.748 6.670,46.792 6.674 L 21.417 6.681 13.676 13.729 M314.813 9.728 C 312.555 11.033,310.511 12.230,310.271 12.388 L 309.833 12.674 309.833 15.990 C 309.833 20.225,310.063 19.833,307.583 19.833 C 305.102 19.833,305.333 19.429,305.333 23.764 L 305.333 27.167 307.383 27.167 C 308.756 27.167,309.499 27.233,309.633 27.367 C 309.785 27.518,309.833 30.092,309.833 37.932 C 309.833 51.968,310.075 53.134,313.390 55.077 C 316.097 56.663,321.511 56.836,325.348 55.459 L 326.417 55.076 326.368 54.246 C 326.341 53.790,326.214 52.629,326.087 51.667 C 325.959 50.704,325.806 49.478,325.746 48.943 C 325.647 48.046,325.610 47.976,325.278 48.066 C 322.089 48.930,321.414 48.969,320.403 48.353 C 319.226 47.635,319.250 47.866,319.250 37.000 L 319.250 27.250 322.462 27.205 L 325.673 27.159 325.628 23.538 L 325.583 19.917 322.417 19.833 L 319.250 19.750 319.206 13.542 C 319.182 10.127,319.107 7.338,319.040 7.344 C 318.972 7.350,317.070 8.423,314.813 9.728 M104.000 14.859 C 109.923 16.806,109.318 25.503,103.170 26.795 C 101.625 27.120,88.111 27.299,87.750 27.000 C 87.411 26.718,87.371 14.870,87.708 14.513 C 88.101 14.097,102.623 14.406,104.000 14.859 M353.350 21.083 C 354.376 23.891,354.898 25.307,355.500 26.917 C 357.964 33.509,358.825 35.867,358.830 36.042 C 358.832 36.110,355.796 36.167,352.083 36.167 C 344.602 36.167,345.110 36.254,345.575 35.045 C 345.708 34.699,346.760 31.792,347.913 28.583 C 349.065 25.375,350.111 22.488,350.235 22.167 C 350.360 21.846,350.667 21.021,350.917 20.333 C 352.049 17.217,351.923 17.178,353.350 21.083 M285.750 19.190 C 282.199 19.641,279.431 21.058,276.849 23.747 C 275.535 25.115,275.520 25.100,275.463 22.247 L 275.417 19.917 271.125 19.872 L 266.833 19.828 266.833 37.747 L 266.833 55.667 271.500 55.667 L 276.167 55.667 276.167 46.042 C 276.167 34.250,276.332 32.131,277.413 30.012 C 279.636 25.657,286.462 24.744,288.815 28.488 C 290.034 30.427,290.158 31.978,290.163 45.375 L 290.167 55.667 294.845 55.667 L 299.523 55.667 299.465 42.208 L 299.407 28.750 299.016 27.250 C 297.512 21.482,292.359 18.352,285.750 19.190 M137.417 19.341 C 131.901 20.192,128.547 22.848,126.755 27.785 C 126.250 29.176,126.077 29.046,129.167 29.591 C 130.587 29.841,132.275 30.144,132.917 30.264 C 134.819 30.620,134.757 30.642,135.399 29.369 C 136.647 26.891,138.363 26.057,141.893 26.212 C 146.132 26.400,147.667 27.745,147.667 31.276 L 147.667 32.350 147.071 32.599 C 146.412 32.875,140.957 34.211,137.583 34.923 C 128.584 36.824,125.417 39.708,125.417 46.000 C 125.417 56.250,138.287 60.126,147.328 52.599 C 148.403 51.704,148.431 51.719,148.934 53.454 C 149.140 54.167,149.387 54.956,149.483 55.208 L 149.658 55.667 154.246 55.667 C 156.769 55.667,158.833 55.626,158.833 55.577 C 158.833 55.527,158.694 55.208,158.523 54.868 C 157.090 52.013,156.971 50.871,156.835 38.667 C 156.703 26.874,156.683 26.630,155.663 24.553 C 154.627 22.444,152.036 20.616,148.833 19.734 C 147.087 19.254,139.645 18.998,137.417 19.341 M237.833 19.337 C 232.314 20.229,229.059 22.761,227.249 27.571 C 226.688 29.059,226.687 29.057,228.609 29.408 C 229.511 29.572,230.963 29.842,231.833 30.006 C 232.704 30.171,233.829 30.353,234.333 30.412 L 235.250 30.519 235.714 29.541 C 236.918 27.003,238.297 26.250,241.746 26.250 C 246.187 26.250,247.678 27.234,247.995 30.377 C 248.233 32.738,248.405 32.659,238.000 34.929 C 230.193 36.633,227.134 38.770,226.067 43.267 C 223.397 54.517,236.824 60.774,247.106 53.071 C 249.008 51.646,248.863 51.626,249.333 53.373 C 249.537 54.130,249.810 54.956,249.939 55.208 L 250.175 55.667 254.671 55.667 C 257.144 55.667,259.166 55.610,259.166 55.542 C 259.166 55.473,258.948 54.884,258.683 54.232 C 257.364 50.996,257.273 49.991,257.257 38.500 C 257.237 24.433,256.867 23.205,251.879 20.676 C 249.403 19.420,241.803 18.695,237.833 19.337 M213.500 19.996 L 208.917 20.083 208.917 37.833 L 208.917 55.583 213.542 55.628 L 218.167 55.672 218.167 37.753 C 218.167 27.897,218.148 19.850,218.125 19.871 C 218.102 19.892,216.021 19.948,213.500 19.996 M184.000 26.445 C 187.993 27.526,189.909 31.163,189.911 37.667 C 189.913 45.016,187.112 49.050,182.000 49.057 C 177.993 49.062,175.309 46.593,174.331 42.000 C 172.218 32.083,176.916 24.526,184.000 26.445 M147.664 40.875 C 147.658 45.633,146.665 47.615,143.549 49.094 C 139.796 50.875,135.843 49.629,134.895 46.365 C 133.954 43.130,135.711 41.259,140.833 40.040 C 142.162 39.724,144.075 39.259,145.083 39.007 C 147.946 38.291,147.667 38.090,147.664 40.875 M248.100 38.924 C 248.393 40.092,247.887 44.817,247.353 45.902 C 244.508 51.680,235.167 50.982,235.167 44.991 C 235.167 42.048,236.771 40.982,243.417 39.510 C 245.067 39.145,246.642 38.774,246.917 38.687 C 247.752 38.422,247.986 38.469,248.100 38.924 " stroke="none" fill="#1d1d1d" fill-rule="evenodd"></path><path id="path1" d="M0.000 30.583 L 0.000 61.167 200.000 61.167 L 400.000 61.167 400.000 30.583 L 400.000 0.000 200.000 0.000 L 0.000 0.000 0.000 30.583 M199.417 6.208 C 199.467 6.415,199.487 17.646,199.462 31.167 L 199.417 55.750 194.958 55.794 L 190.500 55.839 190.500 53.513 C 190.500 52.142,190.432 51.144,190.333 51.083 C 190.242 51.027,190.166 51.041,190.165 51.115 C 190.165 51.189,189.734 51.709,189.207 52.270 C 183.712 58.127,174.745 58.134,169.215 52.286 C 167.519 50.491,166.559 48.955,165.549 46.417 C 163.472 41.200,163.782 32.085,166.206 27.060 C 170.384 18.398,181.531 16.102,188.504 22.466 L 189.667 23.527 189.667 15.108 C 189.667 10.041,189.731 6.518,189.829 6.261 L 189.992 5.833 194.659 5.833 L 199.327 5.833 199.417 6.208 M357.364 6.042 C 357.507 6.156,358.877 9.400,360.408 13.250 C 361.939 17.100,363.293 20.475,363.416 20.750 C 363.540 21.025,363.750 21.550,363.884 21.917 C 364.199 22.784,366.804 29.316,367.007 29.750 C 367.391 30.568,377.333 55.532,377.333 55.676 C 377.333 55.778,375.292 55.822,371.812 55.794 L 366.290 55.750 365.463 53.583 C 365.008 52.392,364.522 51.164,364.383 50.855 C 364.245 50.546,364.070 50.096,363.994 49.855 C 363.918 49.614,363.620 48.817,363.331 48.083 C 363.042 47.350,362.698 46.417,362.568 46.010 C 362.437 45.603,362.217 45.097,362.078 44.885 L 361.826 44.500 352.204 44.503 C 346.913 44.504,342.499 44.560,342.395 44.628 C 342.222 44.740,341.333 46.783,341.333 47.068 C 341.333 47.137,341.153 47.656,340.934 48.222 C 340.714 48.787,340.291 49.925,339.995 50.750 C 339.699 51.575,339.155 53.056,338.786 54.042 L 338.116 55.833 332.818 55.833 C 327.031 55.833,327.176 55.862,327.647 54.803 C 327.822 54.407,328.268 53.296,328.638 52.333 C 329.007 51.371,329.795 49.346,330.388 47.833 C 330.981 46.321,331.741 44.371,332.076 43.500 C 332.412 42.629,332.939 41.279,333.248 40.500 C 333.557 39.721,334.010 38.558,334.256 37.917 C 334.501 37.275,335.025 35.925,335.420 34.917 C 336.144 33.071,336.481 32.204,338.435 27.167 C 339.022 25.654,339.614 24.170,339.751 23.869 C 339.888 23.568,340.000 23.259,340.000 23.181 C 340.000 23.104,340.126 22.750,340.280 22.395 C 340.553 21.767,340.840 21.031,341.412 19.500 C 341.566 19.087,341.788 18.525,341.905 18.250 C 342.021 17.975,342.275 17.337,342.468 16.833 C 342.661 16.329,343.302 14.679,343.892 13.167 C 344.482 11.654,345.239 9.704,345.573 8.833 C 346.874 5.447,346.038 5.833,352.063 5.833 C 355.845 5.833,357.168 5.885,357.364 6.042 M107.750 6.552 C 113.250 7.707,117.091 11.431,118.007 16.496 C 119.597 25.288,115.677 31.507,107.290 33.499 C 106.395 33.712,105.692 33.914,105.727 33.949 C 105.761 33.984,106.357 34.403,107.051 34.881 C 110.608 37.333,112.388 39.564,117.985 48.583 C 119.293 50.692,120.807 53.114,121.349 53.967 C 121.890 54.819,122.333 55.588,122.333 55.675 C 122.333 55.772,119.990 55.833,116.279 55.833 L 110.224 55.833 108.368 53.042 C 105.942 49.391,102.161 43.786,100.920 42.000 C 96.675 35.893,95.553 35.220,89.543 35.179 L 87.836 35.167 87.793 45.458 L 87.750 55.750 82.667 55.750 L 77.583 55.750 77.541 31.083 C 77.517 17.517,77.535 6.319,77.580 6.200 C 77.647 6.025,80.294 5.995,91.623 6.040 L 105.583 6.097 107.750 6.552 M218.464 10.167 C 218.489 12.412,218.469 14.419,218.419 14.625 L 218.327 15.000 213.598 15.000 C 209.440 15.000,208.857 14.968,208.768 14.736 C 208.628 14.372,208.640 6.249,208.780 6.109 C 208.843 6.046,211.037 6.015,213.655 6.039 L 218.417 6.083 218.464 10.167 M392.500 30.919 L 392.500 55.838 387.375 55.794 L 382.250 55.750 382.207 31.083 C 382.184 17.517,382.200 6.323,382.244 6.208 C 382.305 6.048,383.494 6.000,387.411 6.000 L 392.500 6.000 392.500 30.919 M72.499 6.542 C 72.498 6.656,71.879 7.306,71.124 7.985 C 66.077 12.524,62.257 16.035,62.194 16.193 C 62.164 16.270,64.470 16.333,67.319 16.333 C 70.169 16.333,72.500 16.396,72.500 16.472 C 72.500 16.644,70.852 18.223,67.509 21.251 C 63.132 25.216,62.419 25.878,62.361 26.025 C 62.331 26.103,64.606 26.167,67.417 26.167 C 71.431 26.167,72.513 26.211,72.459 26.375 C 72.421 26.490,71.457 27.446,70.317 28.500 C 68.040 30.606,59.887 38.045,57.759 39.957 L 56.417 41.165 30.958 41.166 C 9.210 41.167,5.500 41.133,5.500 40.933 C 5.500 40.804,6.269 40.003,7.208 39.153 C 8.148 38.303,10.443 36.214,12.309 34.512 L 15.701 31.417 10.315 31.373 C 7.206 31.347,4.862 31.262,4.771 31.171 C 4.619 31.019,5.304 30.329,7.917 28.002 C 8.467 27.512,9.704 26.386,10.667 25.501 C 11.629 24.615,12.979 23.380,13.667 22.756 C 14.354 22.133,14.942 21.557,14.972 21.478 C 15.003 21.398,12.890 21.333,10.274 21.333 C 7.659 21.333,5.478 21.267,5.428 21.185 C 5.378 21.104,6.817 19.700,8.627 18.065 C 10.436 16.430,12.742 14.332,13.750 13.402 C 14.758 12.472,16.918 10.502,18.549 9.022 L 21.514 6.333 47.007 6.333 C 67.291 6.333,72.500 6.376,72.499 6.542 M319.333 13.423 L 319.333 19.659 322.542 19.705 L 325.750 19.750 325.750 23.583 L 325.750 27.417 322.533 27.462 L 319.316 27.507 319.366 37.129 C 319.422 47.822,319.382 47.447,320.550 48.185 C 321.222 48.611,322.879 48.524,324.485 47.980 C 325.876 47.509,325.886 47.523,326.148 50.533 C 326.263 51.844,326.426 53.277,326.511 53.717 C 326.814 55.275,326.734 55.365,324.479 56.001 C 318.111 57.797,312.193 56.160,310.564 52.152 C 309.817 50.314,309.789 49.872,309.684 38.500 L 309.583 27.583 307.558 27.537 C 304.957 27.477,305.150 27.818,305.205 23.396 L 305.250 19.750 307.375 19.703 C 308.544 19.678,309.515 19.640,309.533 19.620 C 309.552 19.600,309.608 17.974,309.658 16.007 L 309.750 12.431 311.000 11.688 C 314.704 9.486,319.090 7.036,319.204 7.106 C 319.275 7.150,319.333 9.993,319.333 13.423 M87.833 20.750 L 87.833 26.833 94.292 26.828 C 103.068 26.821,104.575 26.602,106.134 25.111 C 108.390 22.952,108.417 18.259,106.186 16.299 C 104.543 14.857,103.280 14.688,94.042 14.675 L 87.833 14.667 87.833 20.750 M351.784 18.458 C 351.699 18.738,348.158 28.484,347.137 31.250 C 346.866 31.983,346.544 32.883,346.420 33.250 C 346.297 33.617,346.087 34.179,345.954 34.500 C 345.820 34.821,345.662 35.290,345.602 35.542 L 345.494 36.000 351.997 36.000 C 359.027 36.000,358.718 36.042,358.341 35.133 C 358.139 34.646,355.584 27.771,355.070 26.333 C 354.857 25.738,354.501 24.762,354.279 24.167 C 354.056 23.571,353.571 22.258,353.202 21.250 C 352.071 18.168,351.946 17.923,351.784 18.458 M145.500 19.003 C 151.564 19.459,155.303 21.920,156.512 26.250 C 156.874 27.547,156.888 27.884,156.994 38.583 C 157.116 50.805,157.131 50.969,158.373 53.917 C 158.644 54.558,158.904 55.253,158.952 55.461 L 159.040 55.839 154.240 55.794 L 149.439 55.750 148.903 54.030 C 148.253 51.947,148.289 51.988,147.623 52.607 C 139.060 60.567,125.167 56.476,125.167 45.995 C 125.167 39.479,128.452 36.593,138.250 34.503 C 141.694 33.768,146.118 32.676,146.897 32.368 L 147.544 32.113 147.456 30.848 C 147.247 27.863,146.215 26.925,142.643 26.473 C 139.084 26.024,136.699 27.075,135.461 29.640 C 134.805 30.998,135.183 30.963,130.502 30.097 C 125.853 29.238,126.034 29.324,126.421 28.140 C 128.808 20.838,134.384 18.168,145.500 19.003 M245.934 19.007 C 251.368 19.445,255.130 21.579,256.579 25.047 C 257.319 26.817,257.500 29.549,257.503 38.978 C 257.506 50.087,257.663 51.633,259.093 54.720 C 259.633 55.885,259.804 55.844,254.572 55.794 L 249.917 55.750 249.344 54.000 C 249.029 53.038,248.751 52.222,248.727 52.188 C 248.702 52.155,248.117 52.582,247.425 53.138 C 239.027 59.894,226.540 56.628,225.681 47.450 C 224.999 40.153,228.352 36.724,238.250 34.598 C 244.963 33.156,247.595 32.451,247.808 32.036 C 248.032 31.601,247.714 29.246,247.330 28.494 C 246.712 27.282,245.308 26.663,242.619 26.418 C 239.201 26.105,236.932 27.251,235.775 29.875 C 235.542 30.402,235.271 30.833,235.173 30.833 C 234.977 30.833,230.211 29.982,228.085 29.567 C 226.435 29.245,226.424 29.226,226.999 27.680 C 229.605 20.672,235.141 18.136,245.934 19.007 M291.583 19.339 C 294.879 20.373,297.074 22.115,298.296 24.667 C 299.573 27.334,299.563 27.192,299.625 42.375 L 299.680 55.833 294.858 55.833 C 290.614 55.833,290.024 55.802,289.934 55.570 C 289.879 55.425,289.833 50.343,289.832 44.278 C 289.831 32.579,289.748 30.903,289.098 29.433 C 286.892 24.446,278.774 25.788,277.096 31.417 C 276.508 33.389,276.486 33.865,276.495 44.882 C 276.499 50.455,276.457 55.199,276.400 55.424 L 276.297 55.833 271.482 55.833 L 266.667 55.833 266.667 37.768 C 266.667 21.448,266.692 19.693,266.930 19.601 C 267.272 19.470,274.800 19.473,275.292 19.605 C 275.659 19.703,275.667 19.758,275.667 22.103 C 275.667 23.421,275.708 24.500,275.759 24.500 C 275.809 24.500,276.264 24.054,276.769 23.508 C 280.452 19.531,286.642 17.789,291.583 19.339 M218.417 37.750 L 218.417 55.750 213.583 55.750 L 208.750 55.750 208.704 38.083 C 208.679 28.367,208.700 20.247,208.750 20.039 L 208.841 19.662 213.629 19.706 L 218.417 19.750 218.417 37.750 M180.508 26.506 C 175.649 27.521,173.363 32.834,174.339 40.838 C 174.949 45.840,177.825 48.833,182.020 48.833 C 187.410 48.833,190.135 44.110,189.647 35.617 C 189.280 29.249,185.485 25.465,180.508 26.506 M146.889 38.833 C 146.690 38.914,145.677 39.175,144.639 39.414 C 138.114 40.916,137.520 41.103,136.278 42.051 C 133.848 43.904,134.948 48.323,138.107 49.399 C 141.285 50.482,145.876 48.375,146.992 45.321 C 147.404 44.193,147.743 38.653,147.398 38.677 C 147.317 38.683,147.087 38.753,146.889 38.833 M247.333 38.819 C 247.196 38.898,246.183 39.166,245.083 39.417 C 240.217 40.524,238.975 40.849,238.059 41.253 C 232.261 43.814,236.318 51.236,242.511 49.398 C 246.513 48.211,247.732 46.284,247.864 40.933 C 247.917 38.774,247.854 38.524,247.333 38.819 " stroke="none" fill="#fbfbfb" fill-rule="evenodd"></path><path id="path2" d="M101.960 6.118 C 102.168 6.158,102.468 6.156,102.627 6.115 C 102.786 6.073,102.617 6.040,102.250 6.042 C 101.883 6.044,101.753 6.078,101.960 6.118 M392.414 30.917 C 392.414 44.483,392.434 50.009,392.458 43.195 C 392.482 36.382,392.482 25.282,392.458 18.529 C 392.434 11.775,392.414 17.350,392.414 30.917 M99.125 14.621 C 99.423 14.658,99.910 14.658,100.208 14.621 C 100.506 14.584,100.263 14.553,99.667 14.553 C 99.071 14.553,98.827 14.584,99.125 14.621 M211.458 14.958 C 212.673 14.986,214.660 14.986,215.875 14.958 C 217.090 14.929,216.096 14.906,213.667 14.906 C 211.237 14.906,210.244 14.929,211.458 14.958 M64.375 16.458 C 65.727 16.486,67.940 16.486,69.292 16.458 C 70.644 16.430,69.537 16.407,66.833 16.407 C 64.129 16.407,63.023 16.430,64.375 16.458 M287.460 18.951 C 287.668 18.991,287.968 18.990,288.127 18.948 C 288.286 18.906,288.117 18.874,287.750 18.875 C 287.383 18.877,287.253 18.911,287.460 18.951 M107.881 20.583 C 107.882 21.042,107.915 21.209,107.953 20.956 C 107.991 20.703,107.990 20.328,107.951 20.123 C 107.911 19.918,107.880 20.125,107.881 20.583 M266.747 37.750 C 266.747 47.558,266.767 51.546,266.792 46.612 C 266.816 41.678,266.816 33.653,266.792 28.779 C 266.767 23.905,266.747 27.942,266.747 37.750 M325.738 23.583 C 325.738 25.600,325.762 26.402,325.791 25.366 C 325.820 24.329,325.820 22.679,325.791 21.699 C 325.762 20.719,325.738 21.567,325.738 23.583 M299.579 44.000 C 299.579 50.371,299.600 52.977,299.625 49.792 C 299.650 46.606,299.650 41.394,299.625 38.208 C 299.600 35.023,299.579 37.629,299.579 44.000 M164.205 39.167 C 164.205 39.487,164.240 39.619,164.282 39.458 C 164.323 39.298,164.323 39.035,164.282 38.875 C 164.240 38.715,164.205 38.846,164.205 39.167 M147.560 40.333 C 147.560 41.204,147.588 41.560,147.623 41.125 C 147.657 40.690,147.657 39.977,147.623 39.542 C 147.588 39.106,147.560 39.462,147.560 40.333 M156.900 43.583 C 156.900 44.958,156.926 45.499,156.957 44.784 C 156.989 44.069,156.988 42.944,156.957 42.284 C 156.925 41.624,156.900 42.208,156.900 43.583 M125.218 46.083 C 125.219 46.633,125.250 46.838,125.287 46.539 C 125.325 46.239,125.324 45.789,125.286 45.539 C 125.248 45.288,125.217 45.533,125.218 46.083 " stroke="none" fill="#8c8c8c" fill-rule="evenodd"></path><path id="path3" d="M189.942 5.958 C 189.900 6.027,191.264 6.064,192.974 6.041 C 198.839 5.960,199.412 5.904,194.718 5.868 C 192.134 5.849,189.985 5.890,189.942 5.958 M349.552 5.958 C 351.002 5.986,353.327 5.986,354.719 5.958 C 356.111 5.930,354.925 5.907,352.083 5.907 C 349.242 5.908,348.103 5.930,349.552 5.958 M103.211 6.120 C 103.464 6.158,103.839 6.157,104.044 6.117 C 104.249 6.078,104.042 6.046,103.583 6.048 C 103.125 6.049,102.957 6.081,103.211 6.120 M208.742 6.211 C 208.697 6.328,208.681 8.296,208.706 10.586 L 208.751 14.750 208.834 10.375 C 208.915 6.096,208.908 5.779,208.742 6.211 M382.278 6.111 C 382.123 6.265,382.137 55.629,382.292 55.724 C 382.360 55.767,382.417 44.596,382.417 30.901 C 382.417 17.205,382.410 6.000,382.403 6.000 C 382.395 6.000,382.339 6.050,382.278 6.111 M77.540 30.865 C 77.518 44.495,77.556 55.682,77.625 55.724 C 77.738 55.794,77.737 38.618,77.623 15.000 C 77.600 10.096,77.562 17.235,77.540 30.865 M104.958 6.284 C 105.165 6.324,105.502 6.324,105.708 6.284 C 105.915 6.245,105.746 6.212,105.333 6.212 C 104.921 6.212,104.752 6.245,104.958 6.284 M218.406 10.417 C 218.406 12.800,218.429 13.752,218.458 12.532 C 218.486 11.312,218.486 9.362,218.458 8.198 C 218.429 7.035,218.406 8.033,218.406 10.417 M46.875 6.458 C 60.877 6.482,72.333 6.551,72.333 6.612 C 72.333 6.674,72.202 6.880,72.042 7.070 C 71.750 7.416,71.750 7.416,72.125 7.099 C 73.072 6.298,74.215 6.331,46.958 6.374 L 21.417 6.416 46.875 6.458 M20.658 7.125 L 20.083 7.750 20.708 7.176 C 21.052 6.860,21.333 6.578,21.333 6.551 C 21.333 6.423,21.192 6.543,20.658 7.125 M189.707 14.994 L 189.667 23.571 188.792 22.744 L 187.917 21.917 188.743 22.791 C 189.197 23.271,189.629 23.604,189.703 23.531 C 189.776 23.457,189.816 19.576,189.792 14.907 L 189.747 6.417 189.707 14.994 M109.667 7.056 C 109.667 7.099,109.909 7.218,110.205 7.322 C 110.500 7.425,110.669 7.440,110.580 7.357 C 110.390 7.179,109.667 6.941,109.667 7.056 M70.667 8.250 C 70.262 8.662,69.968 9.000,70.014 9.000 C 70.060 9.000,70.428 8.662,70.833 8.250 C 71.238 7.837,71.532 7.500,71.486 7.500 C 71.440 7.500,71.072 7.837,70.667 8.250 M18.740 8.875 L 18.250 9.417 18.792 8.927 C 19.090 8.658,19.333 8.414,19.333 8.385 C 19.333 8.257,19.196 8.370,18.740 8.875 M114.497 10.083 C 115.087 10.725,115.601 11.287,115.640 11.333 C 115.680 11.379,115.632 11.267,115.535 11.083 C 115.438 10.900,114.923 10.337,114.392 9.833 L 113.426 8.917 114.497 10.083 M68.909 9.875 L 68.250 10.583 68.958 9.925 C 69.348 9.562,69.667 9.243,69.667 9.216 C 69.667 9.090,69.522 9.216,68.909 9.875 M16.909 10.542 L 16.250 11.250 16.958 10.591 C 17.617 9.978,17.743 9.833,17.617 9.833 C 17.590 9.833,17.271 10.152,16.909 10.542 M67.073 11.542 L 66.583 12.083 67.125 11.594 C 67.423 11.325,67.667 11.081,67.667 11.052 C 67.667 10.923,67.529 11.037,67.073 11.542 M15.075 12.208 L 14.417 12.917 15.125 12.258 C 15.784 11.645,15.910 11.500,15.784 11.500 C 15.757 11.500,15.438 11.819,15.075 12.208 M65.075 13.375 L 64.417 14.083 65.125 13.425 C 65.515 13.062,65.833 12.743,65.833 12.716 C 65.833 12.590,65.688 12.716,65.075 13.375 M13.409 13.708 L 12.750 14.417 13.458 13.758 C 14.117 13.145,14.243 13.000,14.117 13.000 C 14.090 13.000,13.771 13.319,13.409 13.708 M63.333 14.917 C 62.928 15.329,62.635 15.667,62.681 15.667 C 62.726 15.667,63.095 15.329,63.500 14.917 C 63.905 14.504,64.199 14.167,64.153 14.167 C 64.107 14.167,63.738 14.504,63.333 14.917 M87.743 14.709 C 87.698 14.824,87.682 17.618,87.706 20.917 L 87.750 26.917 94.083 26.920 L 100.417 26.923 94.125 26.876 L 87.833 26.829 87.833 20.750 L 87.833 14.671 93.292 14.625 L 98.750 14.579 93.286 14.539 C 89.029 14.509,87.805 14.546,87.743 14.709 M101.375 14.788 C 101.719 14.824,102.281 14.824,102.625 14.788 C 102.969 14.752,102.688 14.723,102.000 14.723 C 101.313 14.723,101.031 14.752,101.375 14.788 M71.667 16.397 C 71.667 16.432,71.854 16.497,72.083 16.541 C 72.313 16.585,72.500 16.556,72.500 16.477 C 72.500 16.398,72.313 16.333,72.083 16.333 C 71.854 16.333,71.667 16.362,71.667 16.397 M9.409 17.375 L 8.750 18.083 9.458 17.425 C 10.117 16.812,10.243 16.667,10.117 16.667 C 10.090 16.667,9.771 16.985,9.409 17.375 M70.833 18.083 C 70.428 18.496,70.135 18.833,70.181 18.833 C 70.226 18.833,70.595 18.496,71.000 18.083 C 71.405 17.671,71.699 17.333,71.653 17.333 C 71.607 17.333,71.238 17.671,70.833 18.083 M7.667 18.917 C 7.262 19.329,6.968 19.667,7.014 19.667 C 7.060 19.667,7.428 19.329,7.833 18.917 C 8.238 18.504,8.532 18.167,8.486 18.167 C 8.440 18.167,8.072 18.504,7.667 18.917 M69.167 19.583 C 68.762 19.996,68.468 20.333,68.514 20.333 C 68.560 20.333,68.928 19.996,69.333 19.583 C 69.738 19.171,70.032 18.833,69.986 18.833 C 69.940 18.833,69.572 19.171,69.167 19.583 M140.701 18.957 C 141.316 18.989,142.366 18.989,143.034 18.957 C 143.703 18.926,143.200 18.899,141.917 18.899 C 140.633 18.899,140.086 18.925,140.701 18.957 M178.128 18.954 C 178.428 18.991,178.878 18.990,179.128 18.952 C 179.378 18.914,179.133 18.884,178.583 18.885 C 178.033 18.886,177.828 18.917,178.128 18.954 M180.044 18.953 C 180.297 18.991,180.672 18.990,180.877 18.951 C 181.082 18.911,180.875 18.880,180.417 18.881 C 179.958 18.882,179.791 18.915,180.044 18.953 M241.125 18.957 C 241.790 18.989,242.877 18.989,243.542 18.957 C 244.206 18.925,243.662 18.900,242.333 18.900 C 241.004 18.900,240.460 18.925,241.125 18.957 M286.044 18.953 C 286.297 18.991,286.672 18.990,286.877 18.951 C 287.082 18.911,286.875 18.880,286.417 18.881 C 285.958 18.882,285.791 18.915,286.044 18.953 M288.542 18.948 C 288.702 18.990,288.965 18.990,289.125 18.948 C 289.285 18.906,289.154 18.872,288.833 18.872 C 288.512 18.872,288.381 18.906,288.542 18.948 M289.681 19.062 C 289.719 19.096,290.125 19.167,290.583 19.220 C 291.145 19.285,291.281 19.270,291.000 19.175 C 290.584 19.033,289.549 18.945,289.681 19.062 M147.583 19.333 C 148.288 19.513,148.894 19.513,148.333 19.333 C 148.104 19.260,147.729 19.201,147.500 19.203 C 147.126 19.206,147.134 19.219,147.583 19.333 M236.500 19.333 C 235.940 19.513,236.545 19.513,237.250 19.333 C 237.699 19.219,237.708 19.206,237.333 19.203 C 237.104 19.201,236.729 19.260,236.500 19.333 M118.372 20.000 C 118.372 20.321,118.406 20.452,118.448 20.292 C 118.490 20.131,118.490 19.869,118.448 19.708 C 118.406 19.548,118.372 19.679,118.372 20.000 M269.051 19.625 C 270.225 19.653,272.100 19.653,273.218 19.624 C 274.336 19.596,273.375 19.572,271.083 19.572 C 268.792 19.572,267.877 19.596,269.051 19.625 M211.135 19.791 C 212.447 19.820,214.547 19.819,215.802 19.791 C 217.057 19.763,215.983 19.740,213.417 19.740 C 210.850 19.740,209.823 19.763,211.135 19.791 M218.250 37.750 C 218.250 47.678,218.306 55.767,218.375 55.724 C 218.444 55.682,218.500 47.593,218.500 37.750 C 218.500 27.907,218.444 19.818,218.375 19.776 C 218.306 19.733,218.250 27.822,218.250 37.750 M305.278 19.778 C 305.055 20.001,305.151 27.113,305.380 27.303 C 305.614 27.497,309.725 27.657,309.531 27.464 C 309.465 27.398,308.512 27.323,307.414 27.297 L 305.417 27.250 305.417 23.458 C 305.417 21.373,305.410 19.667,305.403 19.667 C 305.395 19.667,305.339 19.717,305.278 19.778 M5.947 20.469 C 5.087 21.349,5.007 21.333,10.296 21.333 C 14.511 21.333,15.025 21.362,14.936 21.592 C 14.879 21.740,14.907 21.807,15.002 21.749 C 15.813 21.248,15.158 21.167,10.300 21.167 L 5.432 21.167 6.083 20.500 C 6.441 20.133,6.697 19.833,6.651 19.833 C 6.605 19.833,6.288 20.119,5.947 20.469 M233.917 20.089 C 233.500 20.290,233.486 20.313,233.833 20.228 C 234.306 20.113,234.836 19.842,234.583 19.846 C 234.492 19.847,234.192 19.957,233.917 20.089 M281.125 20.178 C 280.781 20.359,280.500 20.545,280.500 20.591 C 280.500 20.665,281.816 20.050,281.986 19.896 C 282.178 19.723,281.677 19.886,281.125 20.178 M208.706 37.782 C 208.685 47.608,208.723 55.682,208.792 55.724 C 208.905 55.794,208.904 43.209,208.789 26.333 C 208.766 22.804,208.728 27.956,208.706 37.782 M151.667 20.575 C 151.667 20.621,151.892 20.774,152.167 20.917 C 152.442 21.059,152.667 21.138,152.667 21.092 C 152.667 21.046,152.442 20.892,152.167 20.750 C 151.892 20.608,151.667 20.529,151.667 20.575 M67.077 21.542 L 66.250 22.417 67.125 21.590 C 67.606 21.135,68.000 20.741,68.000 20.715 C 68.000 20.590,67.846 20.729,67.077 21.542 M186.667 21.061 C 186.667 21.106,186.892 21.304,187.167 21.500 C 187.442 21.696,187.667 21.819,187.667 21.773 C 187.667 21.727,187.442 21.529,187.167 21.333 C 186.892 21.138,186.667 21.015,186.667 21.061 M118.209 21.917 C 118.211 22.283,118.245 22.414,118.285 22.206 C 118.324 21.999,118.323 21.699,118.281 21.540 C 118.239 21.380,118.207 21.550,118.209 21.917 M296.417 22.167 C 296.868 22.625,297.275 23.000,297.321 23.000 C 297.367 23.000,297.035 22.625,296.583 22.167 C 296.132 21.708,295.725 21.333,295.679 21.333 C 295.633 21.333,295.965 21.708,296.417 22.167 M230.740 22.042 L 230.250 22.583 230.792 22.094 C 231.297 21.638,231.410 21.500,231.281 21.500 C 231.252 21.500,231.009 21.744,230.740 22.042 M154.333 22.583 C 154.831 23.087,155.276 23.500,155.322 23.500 C 155.368 23.500,154.998 23.087,154.500 22.583 C 154.002 22.079,153.557 21.667,153.511 21.667 C 153.466 21.667,153.835 22.079,154.333 22.583 M13.667 22.750 C 13.262 23.162,12.968 23.500,13.014 23.500 C 13.060 23.500,13.428 23.162,13.833 22.750 C 14.238 22.337,14.532 22.000,14.486 22.000 C 14.440 22.000,14.072 22.337,13.667 22.750 M129.658 22.625 L 129.083 23.250 129.708 22.676 C 130.290 22.141,130.410 22.000,130.283 22.000 C 130.255 22.000,129.974 22.281,129.658 22.625 M169.078 23.042 L 168.083 24.083 169.125 23.089 C 169.698 22.541,170.167 22.073,170.167 22.047 C 170.167 21.924,170.002 22.074,169.078 23.042 M254.833 22.583 C 255.144 22.904,255.436 23.167,255.482 23.167 C 255.528 23.167,255.311 22.904,255.000 22.583 C 254.689 22.262,254.397 22.000,254.351 22.000 C 254.305 22.000,254.522 22.262,254.833 22.583 M277.078 23.208 L 276.083 24.250 277.125 23.255 C 278.093 22.331,278.243 22.167,278.120 22.167 C 278.094 22.167,277.625 22.635,277.078 23.208 M65.324 23.125 L 64.750 23.750 65.375 23.176 C 65.719 22.860,66.000 22.578,66.000 22.551 C 66.000 22.423,65.859 22.543,65.324 23.125 M229.406 23.375 L 228.917 23.917 229.458 23.427 C 229.963 22.971,230.077 22.833,229.948 22.833 C 229.919 22.833,229.675 23.077,229.406 23.375 M107.083 23.833 C 106.941 24.108,106.862 24.333,106.908 24.333 C 106.954 24.333,107.108 24.108,107.250 23.833 C 107.392 23.558,107.471 23.333,107.425 23.333 C 107.379 23.333,107.226 23.558,107.083 23.833 M11.833 24.417 C 11.428 24.829,11.135 25.167,11.181 25.167 C 11.226 25.167,11.595 24.829,12.000 24.417 C 12.405 24.004,12.699 23.667,12.653 23.667 C 12.607 23.667,12.238 24.004,11.833 24.417 M63.409 24.875 L 62.750 25.583 63.458 24.925 C 64.117 24.312,64.243 24.167,64.117 24.167 C 64.090 24.167,63.771 24.485,63.409 24.875 M106.158 25.125 L 105.583 25.750 106.208 25.176 C 106.790 24.641,106.910 24.500,106.783 24.500 C 106.755 24.500,106.474 24.781,106.158 25.125 M127.409 25.682 C 127.262 25.966,127.172 26.227,127.208 26.263 C 127.244 26.300,127.398 26.068,127.551 25.748 C 127.894 25.029,127.775 24.974,127.409 25.682 M9.906 26.208 L 9.417 26.750 9.958 26.260 C 10.463 25.804,10.577 25.667,10.448 25.667 C 10.419 25.667,10.175 25.910,9.906 26.208 M62.278 25.778 C 61.779 26.276,62.190 26.324,67.333 26.370 C 70.175 26.396,72.500 26.360,72.500 26.292 C 72.500 26.223,70.204 26.167,67.399 26.167 C 62.933 26.167,62.310 26.136,62.394 25.917 C 62.497 25.648,62.456 25.600,62.278 25.778 M116.783 26.585 C 116.630 26.905,116.540 27.167,116.582 27.167 C 116.696 27.167,117.202 26.146,117.125 26.070 C 117.089 26.034,116.935 26.266,116.783 26.585 M142.542 26.448 C 142.702 26.490,142.965 26.490,143.125 26.448 C 143.285 26.406,143.154 26.372,142.833 26.372 C 142.512 26.372,142.381 26.406,142.542 26.448 M182.875 26.448 C 183.035 26.490,183.298 26.490,183.458 26.448 C 183.619 26.406,183.487 26.372,183.167 26.372 C 182.846 26.372,182.715 26.406,182.875 26.448 M240.042 26.448 C 240.202 26.490,240.465 26.490,240.625 26.448 C 240.785 26.406,240.654 26.372,240.333 26.372 C 240.012 26.372,239.881 26.406,240.042 26.448 M242.875 26.448 C 243.035 26.490,243.298 26.490,243.458 26.448 C 243.619 26.406,243.487 26.372,243.167 26.372 C 242.846 26.372,242.715 26.406,242.875 26.448 M102.708 26.615 C 102.869 26.657,103.131 26.657,103.292 26.615 C 103.452 26.573,103.321 26.539,103.000 26.539 C 102.679 26.539,102.548 26.573,102.708 26.615 M138.500 26.674 C 138.317 26.798,138.385 26.813,138.750 26.732 C 139.363 26.595,139.496 26.499,139.069 26.503 C 138.894 26.504,138.637 26.581,138.500 26.674 M184.000 26.639 C 184.137 26.724,184.438 26.843,184.667 26.904 C 184.956 26.982,185.007 26.969,184.833 26.861 C 184.696 26.776,184.396 26.657,184.167 26.596 C 183.877 26.518,183.826 26.531,184.000 26.639 M244.014 26.561 C 244.052 26.595,244.383 26.668,244.750 26.724 C 245.215 26.795,245.316 26.780,245.083 26.674 C 244.763 26.529,243.871 26.435,244.014 26.561 M101.460 26.785 C 101.668 26.824,101.968 26.823,102.127 26.781 C 102.286 26.739,102.117 26.707,101.750 26.709 C 101.383 26.711,101.253 26.745,101.460 26.785 M137.051 27.429 L 136.583 27.858 137.125 27.481 C 137.423 27.274,137.667 27.081,137.667 27.052 C 137.667 26.920,137.482 27.033,137.051 27.429 M145.583 27.106 C 145.675 27.187,146.012 27.477,146.333 27.751 L 146.915 28.250 146.499 27.776 C 146.271 27.516,145.933 27.225,145.750 27.131 C 145.567 27.036,145.492 27.025,145.583 27.106 M70.909 27.875 L 70.250 28.583 70.958 27.925 C 71.617 27.312,71.743 27.167,71.617 27.167 C 71.590 27.167,71.271 27.485,70.909 27.875 M322.500 27.333 L 319.250 27.428 322.448 27.464 C 324.441 27.486,325.686 27.437,325.750 27.333 C 325.807 27.242,325.830 27.183,325.802 27.203 C 325.773 27.223,324.287 27.281,322.500 27.333 M7.991 27.958 L 7.417 28.583 8.042 28.009 C 8.385 27.693,8.667 27.412,8.667 27.384 C 8.667 27.257,8.526 27.377,7.991 27.958 M156.705 27.833 C 156.705 28.154,156.740 28.285,156.782 28.125 C 156.823 27.965,156.823 27.702,156.782 27.542 C 156.740 27.381,156.705 27.512,156.705 27.833 M279.551 27.762 L 279.083 28.191 279.625 27.814 C 279.923 27.607,280.167 27.414,280.167 27.385 C 280.167 27.254,279.982 27.367,279.551 27.762 M176.744 28.542 L 175.917 29.417 176.792 28.590 C 177.273 28.135,177.667 27.741,177.667 27.715 C 177.667 27.590,177.512 27.729,176.744 28.542 M187.000 28.417 C 187.311 28.738,187.603 29.000,187.649 29.000 C 187.695 29.000,187.478 28.738,187.167 28.417 C 186.856 28.096,186.564 27.833,186.518 27.833 C 186.472 27.833,186.689 28.096,187.000 28.417 M299.372 29.000 C 299.372 29.321,299.406 29.452,299.448 29.292 C 299.490 29.131,299.490 28.869,299.448 28.708 C 299.406 28.548,299.372 28.679,299.372 29.000 M6.333 29.417 C 5.928 29.829,5.635 30.167,5.681 30.167 C 5.726 30.167,6.095 29.829,6.500 29.417 C 6.905 29.004,7.199 28.667,7.153 28.667 C 7.107 28.667,6.738 29.004,6.333 29.417 M69.167 29.417 C 68.762 29.829,68.468 30.167,68.514 30.167 C 68.560 30.167,68.928 29.829,69.333 29.417 C 69.738 29.004,70.032 28.667,69.986 28.667 C 69.940 28.667,69.572 29.004,69.167 29.417 M156.872 29.167 C 156.872 29.488,156.906 29.619,156.948 29.458 C 156.990 29.298,156.990 29.035,156.948 28.875 C 156.906 28.715,156.872 28.846,156.872 29.167 M114.740 29.542 L 114.250 30.083 114.792 29.594 C 115.090 29.325,115.333 29.081,115.333 29.052 C 115.333 28.923,115.196 29.037,114.740 29.542 M257.411 38.917 C 257.411 44.142,257.432 46.255,257.458 43.613 C 257.484 40.971,257.484 36.696,257.458 34.113 C 257.432 31.530,257.411 33.692,257.411 38.917 M299.558 31.167 C 299.558 31.946,299.587 32.265,299.622 31.875 C 299.657 31.485,299.657 30.848,299.622 30.458 C 299.587 30.069,299.558 30.387,299.558 31.167 M247.879 30.833 C 247.879 31.246,247.911 31.415,247.951 31.208 C 247.991 31.002,247.991 30.665,247.951 30.458 C 247.911 30.252,247.879 30.421,247.879 30.833 M134.908 30.486 C 134.821 30.570,134.563 30.672,134.333 30.713 L 133.917 30.788 134.355 30.811 C 134.595 30.823,134.886 30.721,135.000 30.583 C 135.227 30.310,135.162 30.241,134.908 30.486 M4.839 30.743 C 4.387 31.287,4.811 31.333,10.293 31.333 L 15.732 31.333 15.158 31.958 L 14.583 32.583 15.208 32.009 C 15.552 31.693,15.833 31.374,15.833 31.301 C 15.833 31.227,13.358 31.167,10.333 31.167 C 7.308 31.167,4.833 31.107,4.833 31.033 C 4.833 30.960,4.923 30.810,5.033 30.700 C 5.143 30.590,5.190 30.500,5.137 30.500 C 5.084 30.500,4.950 30.609,4.839 30.743 M67.077 31.375 L 66.250 32.250 67.125 31.423 C 67.938 30.654,68.076 30.500,67.952 30.500 C 67.926 30.500,67.532 30.894,67.077 31.375 M234.917 30.667 L 234.417 30.794 234.865 30.814 C 235.112 30.824,235.360 30.758,235.417 30.667 C 235.473 30.575,235.496 30.509,235.468 30.520 C 235.440 30.531,235.192 30.597,234.917 30.667 M289.705 32.167 C 289.705 32.487,289.740 32.619,289.782 32.458 C 289.823 32.298,289.823 32.035,289.782 31.875 C 289.740 31.715,289.705 31.846,289.705 32.167 M65.242 33.042 L 64.583 33.750 65.292 33.091 C 65.950 32.478,66.077 32.333,65.950 32.333 C 65.923 32.333,65.605 32.652,65.242 33.042 M13.575 33.375 L 12.917 34.083 13.625 33.425 C 14.284 32.812,14.410 32.667,14.284 32.667 C 14.257 32.667,13.938 32.985,13.575 33.375 M145.333 32.833 C 144.998 32.941,144.982 32.968,145.250 32.972 C 145.433 32.974,145.733 32.912,145.917 32.833 C 146.341 32.651,145.903 32.651,145.333 32.833 M289.912 44.250 C 289.912 50.483,289.933 53.009,289.958 49.863 C 289.984 46.717,289.984 41.617,289.958 38.529 C 289.933 35.442,289.912 38.017,289.912 44.250 M164.375 33.750 C 164.377 34.117,164.411 34.247,164.451 34.040 C 164.491 33.832,164.490 33.532,164.448 33.373 C 164.406 33.214,164.374 33.383,164.375 33.750 M105.590 33.822 C 105.538 33.907,105.582 34.031,105.690 34.098 C 105.807 34.170,105.840 34.146,105.773 34.038 C 105.709 33.934,105.821 33.826,106.039 33.785 C 106.414 33.713,106.414 33.712,106.052 33.689 C 105.851 33.677,105.643 33.736,105.590 33.822 M63.409 34.708 L 62.750 35.417 63.458 34.758 C 64.117 34.145,64.243 34.000,64.117 34.000 C 64.090 34.000,63.771 34.319,63.409 34.708 M11.667 35.083 C 11.262 35.496,10.968 35.833,11.014 35.833 C 11.060 35.833,11.428 35.496,11.833 35.083 C 12.238 34.671,12.532 34.333,12.486 34.333 C 12.440 34.333,12.072 34.671,11.667 35.083 M138.167 34.500 C 137.837 34.606,137.819 34.633,138.083 34.633 C 138.267 34.633,138.604 34.573,138.833 34.500 C 139.163 34.394,139.181 34.367,138.917 34.367 C 138.733 34.367,138.396 34.427,138.167 34.500 M107.000 34.894 C 107.000 34.940,107.225 35.138,107.500 35.333 C 107.775 35.529,108.000 35.652,108.000 35.606 C 108.000 35.560,107.775 35.362,107.500 35.167 C 107.225 34.971,107.000 34.848,107.000 34.894 M87.745 35.208 C 87.613 35.565,87.576 55.806,87.708 55.724 C 87.777 55.682,87.833 51.042,87.833 45.413 L 87.833 35.178 89.542 35.124 L 91.250 35.070 89.536 35.035 C 88.291 35.010,87.802 35.057,87.745 35.208 M135.250 35.167 C 135.040 35.257,135.009 35.310,135.167 35.310 C 135.304 35.310,135.567 35.245,135.750 35.167 C 135.960 35.076,135.991 35.023,135.833 35.023 C 135.696 35.023,135.433 35.088,135.250 35.167 M92.128 35.287 C 92.428 35.325,92.878 35.324,93.128 35.286 C 93.378 35.248,93.133 35.217,92.583 35.218 C 92.033 35.219,91.828 35.250,92.128 35.287 M276.398 37.250 C 276.398 38.442,276.425 38.907,276.457 38.285 C 276.489 37.662,276.489 36.687,276.457 36.118 C 276.424 35.549,276.398 36.058,276.398 37.250 M61.667 36.250 C 61.262 36.662,60.968 37.000,61.014 37.000 C 61.060 37.000,61.428 36.662,61.833 36.250 C 62.238 35.837,62.532 35.500,62.486 35.500 C 62.440 35.500,62.072 35.837,61.667 36.250 M189.720 36.500 C 189.720 37.096,189.750 37.340,189.787 37.042 C 189.824 36.744,189.824 36.256,189.787 35.958 C 189.750 35.660,189.720 35.904,189.720 36.500 M358.500 35.720 C 358.500 35.972,357.916 36.000,351.958 36.042 L 345.417 36.087 351.964 36.127 C 358.628 36.167,359.175 36.120,358.604 35.548 C 358.547 35.491,358.500 35.569,358.500 35.720 M132.750 35.911 C 132.106 36.205,132.406 36.210,133.167 35.917 C 133.487 35.793,133.637 35.690,133.500 35.687 C 133.362 35.684,133.025 35.785,132.750 35.911 M174.060 37.167 C 174.060 38.037,174.088 38.394,174.123 37.958 C 174.157 37.523,174.157 36.810,174.123 36.375 C 174.088 35.940,174.060 36.296,174.060 37.167 M9.740 36.875 L 9.250 37.417 9.792 36.927 C 10.090 36.658,10.333 36.414,10.333 36.385 C 10.333 36.257,10.196 36.370,9.740 36.875 M110.083 37.500 C 110.628 38.050,111.110 38.500,111.156 38.500 C 111.202 38.500,110.794 38.050,110.250 37.500 C 109.706 36.950,109.223 36.500,109.177 36.500 C 109.131 36.500,109.539 36.950,110.083 37.500 M97.493 37.542 C 97.902 37.977,98.258 38.333,98.285 38.333 C 98.410 38.333,98.278 38.184,97.542 37.493 L 96.750 36.750 97.493 37.542 M59.661 38.125 L 58.750 39.083 59.708 38.172 C 60.599 37.326,60.743 37.167,60.619 37.167 C 60.593 37.167,60.162 37.598,59.661 38.125 M7.909 38.542 L 7.250 39.250 7.958 38.591 C 8.617 37.978,8.743 37.833,8.617 37.833 C 8.590 37.833,8.271 38.152,7.909 38.542 M228.500 38.583 C 228.095 38.996,227.801 39.333,227.847 39.333 C 227.893 39.333,228.262 38.996,228.667 38.583 C 229.072 38.171,229.365 37.833,229.319 37.833 C 229.274 37.833,228.905 38.171,228.500 38.583 M189.718 39.250 C 189.719 39.800,189.750 40.005,189.787 39.705 C 189.825 39.406,189.824 38.956,189.786 38.705 C 189.748 38.455,189.717 38.700,189.718 39.250 M145.917 39.000 C 145.707 39.090,145.676 39.143,145.833 39.143 C 145.971 39.143,146.233 39.079,146.417 39.000 C 146.627 38.910,146.658 38.857,146.500 38.857 C 146.362 38.857,146.100 38.921,145.917 39.000 M57.833 39.750 C 57.428 40.162,57.135 40.500,57.181 40.500 C 57.226 40.500,57.595 40.162,58.000 39.750 C 58.405 39.337,58.699 39.000,58.653 39.000 C 58.607 39.000,58.238 39.337,57.833 39.750 M6.201 40.048 C 5.816 40.441,5.500 40.854,5.500 40.965 C 5.500 41.339,56.397 41.249,56.680 40.875 C 56.868 40.627,56.866 40.614,56.667 40.792 C 56.408 41.022,5.667 41.111,5.667 40.881 C 5.667 40.816,5.982 40.441,6.368 40.048 C 6.754 39.655,7.032 39.333,6.986 39.333 C 6.940 39.333,6.587 39.655,6.201 40.048 M244.167 39.500 C 243.837 39.606,243.819 39.633,244.083 39.633 C 244.267 39.633,244.604 39.573,244.833 39.500 C 245.163 39.394,245.181 39.367,244.917 39.367 C 244.733 39.367,244.396 39.427,244.167 39.500 M143.000 39.667 C 142.670 39.772,142.653 39.800,142.917 39.800 C 143.100 39.800,143.438 39.740,143.667 39.667 C 143.997 39.561,144.014 39.533,143.750 39.533 C 143.567 39.533,143.229 39.593,143.000 39.667 M276.410 47.583 C 276.410 51.892,276.432 53.678,276.458 51.553 C 276.485 49.428,276.485 45.903,276.458 43.720 C 276.432 41.536,276.410 43.275,276.410 47.583 M241.167 40.167 C 240.832 40.274,240.815 40.301,241.083 40.305 C 241.267 40.308,241.567 40.245,241.750 40.167 C 242.175 39.984,241.737 39.984,241.167 40.167 M164.375 41.417 C 164.377 41.783,164.411 41.914,164.451 41.706 C 164.491 41.499,164.490 41.199,164.448 41.040 C 164.406 40.880,164.374 41.050,164.375 41.417 M247.890 42.083 C 247.891 42.817,247.920 43.096,247.956 42.704 C 247.991 42.312,247.990 41.712,247.954 41.371 C 247.919 41.029,247.890 41.350,247.890 42.083 M137.333 41.250 C 137.104 41.381,136.992 41.488,137.083 41.488 C 137.175 41.488,137.438 41.381,137.667 41.250 C 137.896 41.119,138.008 41.012,137.917 41.012 C 137.825 41.012,137.563 41.119,137.333 41.250 M236.406 42.208 L 235.917 42.750 236.458 42.260 C 236.963 41.804,237.077 41.667,236.948 41.667 C 236.919 41.667,236.675 41.910,236.406 42.208 M247.705 44.000 C 247.705 44.321,247.740 44.452,247.782 44.292 C 247.823 44.131,247.823 43.869,247.782 43.708 C 247.740 43.548,247.705 43.679,247.705 44.000 M115.145 44.250 C 115.235 44.433,115.431 44.733,115.580 44.917 L 115.852 45.250 115.688 44.917 C 115.598 44.733,115.402 44.433,115.253 44.250 L 114.982 43.917 115.145 44.250 M125.209 44.583 C 125.211 44.950,125.245 45.080,125.285 44.873 C 125.324 44.666,125.323 44.366,125.281 44.206 C 125.239 44.047,125.207 44.217,125.209 44.583 M175.417 45.000 C 175.559 45.275,175.713 45.500,175.759 45.500 C 175.804 45.500,175.726 45.275,175.583 45.000 C 175.441 44.725,175.287 44.500,175.241 44.500 C 175.196 44.500,175.274 44.725,175.417 45.000 M134.872 45.667 C 134.872 45.987,134.906 46.119,134.948 45.958 C 134.990 45.798,134.990 45.535,134.948 45.375 C 134.906 45.215,134.872 45.346,134.872 45.667 M186.906 46.875 L 186.417 47.417 186.958 46.927 C 187.463 46.471,187.577 46.333,187.448 46.333 C 187.419 46.333,187.175 46.577,186.906 46.875 M246.000 47.417 C 245.595 47.829,245.301 48.167,245.347 48.167 C 245.393 48.167,245.762 47.829,246.167 47.417 C 246.572 47.004,246.865 46.667,246.819 46.667 C 246.774 46.667,246.405 47.004,246.000 47.417 M309.718 47.583 C 309.719 48.133,309.750 48.338,309.787 48.039 C 309.825 47.739,309.824 47.289,309.786 47.039 C 309.748 46.788,309.717 47.033,309.718 47.583 M125.205 47.500 C 125.205 47.821,125.240 47.952,125.282 47.792 C 125.323 47.631,125.323 47.369,125.282 47.208 C 125.240 47.048,125.205 47.179,125.205 47.500 M136.083 48.144 C 136.450 48.538,136.900 48.939,137.083 49.036 C 137.267 49.133,137.379 49.178,137.333 49.136 C 135.710 47.663,135.425 47.437,136.083 48.144 M185.083 48.096 C 184.717 48.315,184.492 48.495,184.583 48.497 C 184.784 48.499,185.833 47.874,185.833 47.752 C 185.833 47.644,185.868 47.628,185.083 48.096 M324.667 47.931 C 324.142 48.146,324.134 48.158,324.583 48.057 C 324.858 47.995,325.245 47.938,325.442 47.930 C 325.640 47.923,325.767 47.860,325.724 47.792 C 325.617 47.618,325.345 47.653,324.667 47.931 M143.667 48.750 C 143.254 48.971,142.976 49.155,143.048 49.159 C 143.225 49.169,144.500 48.514,144.500 48.413 C 144.500 48.303,144.507 48.300,143.667 48.750 M257.539 49.000 C 257.539 49.321,257.573 49.452,257.615 49.292 C 257.657 49.131,257.657 48.869,257.615 48.708 C 257.573 48.548,257.539 48.679,257.539 49.000 M321.627 48.618 C 321.834 48.658,322.134 48.656,322.294 48.615 C 322.453 48.573,322.283 48.540,321.917 48.542 C 321.550 48.544,321.420 48.578,321.627 48.618 M181.375 48.955 C 181.719 48.991,182.281 48.991,182.625 48.955 C 182.969 48.919,182.688 48.889,182.000 48.889 C 181.313 48.889,181.031 48.919,181.375 48.955 M238.000 49.263 C 238.000 49.375,238.866 49.690,238.948 49.607 C 238.986 49.569,238.788 49.459,238.509 49.361 C 238.229 49.264,238.000 49.219,238.000 49.263 M139.375 49.786 C 139.627 49.824,140.040 49.824,140.292 49.786 C 140.544 49.748,140.337 49.717,139.833 49.717 C 139.329 49.717,139.123 49.748,139.375 49.786 M239.875 49.786 C 240.127 49.824,240.540 49.824,240.792 49.786 C 241.044 49.748,240.838 49.717,240.333 49.717 C 239.829 49.717,239.623 49.748,239.875 49.786 M169.417 52.500 C 169.961 53.050,170.444 53.500,170.490 53.500 C 170.535 53.500,170.128 53.050,169.583 52.500 C 169.039 51.950,168.556 51.500,168.510 51.500 C 168.465 51.500,168.872 51.950,169.417 52.500 M147.406 52.708 L 146.917 53.250 147.458 52.760 C 147.756 52.491,148.000 52.248,148.000 52.219 C 148.000 52.090,147.862 52.203,147.406 52.708 M228.417 53.333 C 228.775 53.700,229.105 54.000,229.151 54.000 C 229.197 54.000,228.941 53.700,228.583 53.333 C 228.225 52.967,227.895 52.667,227.849 52.667 C 227.803 52.667,228.059 52.967,228.417 53.333 M246.201 53.905 C 245.426 54.452,245.317 54.609,245.971 54.234 C 246.276 54.060,246.604 53.823,246.700 53.708 C 246.946 53.414,246.831 53.459,246.201 53.905 M311.834 54.224 C 312.063 54.484,312.400 54.775,312.583 54.869 C 312.934 55.050,312.924 55.039,312.001 54.249 L 311.418 53.750 311.834 54.224 M326.487 54.708 C 326.437 55.066,326.463 55.271,326.547 55.187 C 326.627 55.106,326.666 54.825,326.633 54.562 C 326.578 54.121,326.566 54.133,326.487 54.708 M172.000 54.575 C 172.000 54.621,172.225 54.774,172.500 54.917 C 172.775 55.059,173.000 55.138,173.000 55.092 C 173.000 55.046,172.775 54.892,172.500 54.750 C 172.225 54.608,172.000 54.529,172.000 54.575 M244.792 54.762 C 244.169 55.100,244.207 55.241,244.833 54.917 C 245.108 54.774,245.333 54.623,245.333 54.579 C 245.333 54.472,245.315 54.478,244.792 54.762 M158.768 55.250 C 158.905 55.863,159.001 55.996,158.997 55.569 C 158.996 55.394,158.919 55.137,158.826 55.000 C 158.702 54.817,158.687 54.885,158.768 55.250 M173.500 55.429 C 173.500 55.542,174.366 55.856,174.448 55.774 C 174.486 55.736,174.288 55.625,174.009 55.528 C 173.729 55.430,173.500 55.386,173.500 55.429 M132.750 56.167 C 132.933 56.245,133.196 56.310,133.333 56.310 C 133.491 56.310,133.460 56.257,133.250 56.167 C 133.067 56.088,132.804 56.023,132.667 56.023 C 132.509 56.023,132.540 56.076,132.750 56.167 M241.333 56.167 C 240.998 56.274,240.982 56.301,241.250 56.305 C 241.433 56.308,241.733 56.245,241.917 56.167 C 242.341 55.984,241.903 55.984,241.333 56.167 M176.083 56.326 C 176.403 56.471,177.296 56.565,177.153 56.439 C 177.115 56.405,176.783 56.332,176.417 56.276 C 175.952 56.205,175.851 56.220,176.083 56.326 M315.917 56.333 C 316.100 56.412,316.400 56.474,316.583 56.472 C 316.851 56.468,316.835 56.441,316.500 56.333 C 315.930 56.151,315.492 56.151,315.917 56.333 M321.960 56.451 C 322.168 56.491,322.468 56.490,322.627 56.448 C 322.786 56.406,322.617 56.374,322.250 56.375 C 321.883 56.377,321.753 56.411,321.960 56.451 M135.868 56.623 C 136.482 56.655,137.532 56.656,138.201 56.624 C 138.870 56.592,138.367 56.566,137.083 56.566 C 135.800 56.565,135.253 56.591,135.868 56.623 M178.464 56.623 C 178.948 56.657,179.698 56.656,180.131 56.622 C 180.563 56.588,180.167 56.560,179.250 56.561 C 178.333 56.561,177.980 56.589,178.464 56.623 M236.292 56.624 C 236.956 56.655,238.044 56.655,238.708 56.624 C 239.373 56.592,238.829 56.566,237.500 56.566 C 236.171 56.566,235.627 56.592,236.292 56.624 M320.208 56.615 C 320.369 56.657,320.631 56.657,320.792 56.615 C 320.952 56.573,320.821 56.539,320.500 56.539 C 320.179 56.539,320.048 56.573,320.208 56.615 " stroke="none" fill="#a9a9a9" fill-rule="evenodd"></path><path id="path4" d="M77.778 6.111 C 77.717 6.172,77.668 6.303,77.669 6.403 C 77.671 6.511,77.725 6.500,77.803 6.376 C 77.906 6.215,80.571 6.159,89.842 6.125 L 101.750 6.081 89.819 6.041 C 83.258 6.018,77.839 6.050,77.778 6.111 M192.292 6.125 C 193.598 6.153,195.735 6.153,197.042 6.125 C 198.348 6.096,197.279 6.073,194.667 6.073 C 192.054 6.073,190.985 6.096,192.292 6.125 M208.944 6.122 C 208.900 6.193,210.960 6.229,213.521 6.203 L 218.178 6.156 218.130 10.487 C 218.105 12.868,218.141 14.759,218.211 14.689 C 218.282 14.618,218.319 12.653,218.295 10.322 L 218.250 6.083 213.636 6.039 C 211.099 6.015,208.987 6.052,208.944 6.122 M346.776 6.125 C 346.733 6.194,348.247 6.231,350.141 6.207 C 356.624 6.127,357.248 6.071,352.052 6.036 C 349.192 6.016,346.818 6.056,346.776 6.125 M382.410 6.208 C 382.367 6.323,382.350 17.517,382.374 31.083 L 382.417 55.750 387.239 55.794 C 389.891 55.819,392.119 55.781,392.189 55.711 C 392.260 55.641,390.108 55.604,387.409 55.630 L 382.500 55.676 382.500 30.924 L 382.500 6.172 387.458 6.125 L 392.417 6.078 387.453 6.039 C 383.606 6.009,382.472 6.047,382.410 6.208 M103.377 6.286 C 103.631 6.325,104.006 6.324,104.211 6.284 C 104.416 6.244,104.208 6.213,103.750 6.214 C 103.292 6.216,103.124 6.248,103.377 6.286 M105.127 6.451 C 105.334 6.491,105.634 6.490,105.794 6.448 C 105.953 6.406,105.783 6.374,105.417 6.375 C 105.050 6.377,104.920 6.411,105.127 6.451 M189.873 14.958 C 189.851 19.748,189.779 23.667,189.714 23.667 C 189.648 23.667,189.179 23.274,188.672 22.794 L 187.750 21.921 188.705 22.914 C 189.360 23.594,189.714 23.853,189.832 23.735 C 189.946 23.621,189.988 20.675,189.958 14.907 L 189.914 6.250 189.873 14.958 M46.812 6.625 C 70.952 6.666,72.195 6.682,71.978 6.959 C 71.771 7.223,71.777 7.228,72.042 7.021 C 72.202 6.895,72.333 6.727,72.333 6.646 C 72.333 6.563,61.399 6.518,46.875 6.541 L 21.417 6.582 46.812 6.625 M199.414 30.917 C 199.414 44.392,199.434 49.880,199.458 43.112 C 199.482 36.344,199.482 25.319,199.458 18.612 C 199.434 11.905,199.414 17.442,199.414 30.917 M20.575 7.375 L 19.917 8.083 20.625 7.425 C 21.284 6.812,21.410 6.667,21.284 6.667 C 21.257 6.667,20.938 6.985,20.575 7.375 M77.748 30.917 C 77.748 44.300,77.768 49.800,77.792 43.138 C 77.816 36.476,77.816 25.526,77.792 18.805 C 77.768 12.083,77.748 17.533,77.748 30.917 M319.247 13.583 L 319.250 19.750 322.443 19.833 C 324.199 19.879,325.601 19.860,325.558 19.792 C 325.515 19.723,324.098 19.667,322.409 19.667 L 319.337 19.667 319.291 13.542 L 319.244 7.417 319.247 13.583 M70.491 8.292 L 69.917 8.917 70.542 8.342 C 70.885 8.026,71.167 7.745,71.167 7.717 C 71.167 7.590,71.026 7.710,70.491 8.292 M18.833 8.917 C 18.428 9.329,18.135 9.667,18.181 9.667 C 18.226 9.667,18.595 9.329,19.000 8.917 C 19.405 8.504,19.699 8.167,19.653 8.167 C 19.607 8.167,19.238 8.504,18.833 8.917 M315.958 8.929 C 315.335 9.267,315.373 9.407,316.000 9.083 C 316.275 8.941,316.500 8.789,316.500 8.746 C 316.500 8.638,316.482 8.645,315.958 8.929 M68.742 9.875 L 68.083 10.583 68.792 9.925 C 69.181 9.562,69.500 9.243,69.500 9.216 C 69.500 9.090,69.355 9.216,68.742 9.875 M114.333 10.083 C 114.831 10.587,115.276 11.000,115.322 11.000 C 115.368 11.000,114.998 10.587,114.500 10.083 C 114.002 9.579,113.557 9.167,113.511 9.167 C 113.466 9.167,113.835 9.579,114.333 10.083 M17.075 10.542 L 16.417 11.250 17.125 10.591 C 17.784 9.978,17.910 9.833,17.784 9.833 C 17.757 9.833,17.438 10.152,17.075 10.542 M66.991 11.458 L 66.417 12.083 67.042 11.509 C 67.385 11.193,67.667 10.912,67.667 10.884 C 67.667 10.757,67.526 10.877,66.991 11.458 M15.242 12.208 L 14.583 12.917 15.292 12.258 C 15.950 11.645,16.077 11.500,15.950 11.500 C 15.923 11.500,15.605 11.819,15.242 12.208 M310.106 12.345 L 309.667 12.691 309.705 16.137 L 309.743 19.583 309.788 16.167 L 309.833 12.750 310.292 12.376 C 310.868 11.905,310.700 11.878,310.106 12.345 M65.075 13.208 L 64.417 13.917 65.125 13.258 C 65.515 12.895,65.833 12.577,65.833 12.550 C 65.833 12.423,65.688 12.550,65.075 13.208 M13.324 13.958 L 12.750 14.583 13.375 14.009 C 13.719 13.693,14.000 13.412,14.000 13.384 C 14.000 13.257,13.859 13.377,13.324 13.958 M63.158 14.958 L 62.583 15.583 63.208 15.009 C 63.552 14.693,63.833 14.412,63.833 14.384 C 63.833 14.257,63.692 14.377,63.158 14.958 M87.700 14.533 C 87.552 14.682,87.500 16.293,87.500 20.750 C 87.500 25.207,87.552 26.818,87.700 26.967 C 87.850 27.116,89.413 27.157,93.908 27.128 L 99.917 27.090 93.833 27.003 L 87.750 26.917 87.750 20.750 L 87.750 14.583 92.750 14.496 L 97.750 14.409 92.825 14.371 C 89.173 14.343,87.848 14.385,87.700 14.533 M101.296 14.622 C 101.688 14.657,102.288 14.657,102.629 14.621 C 102.971 14.585,102.650 14.557,101.917 14.557 C 101.183 14.558,100.904 14.587,101.296 14.622 M11.409 15.708 L 10.750 16.417 11.458 15.758 C 12.117 15.145,12.243 15.000,12.117 15.000 C 12.090 15.000,11.771 15.319,11.409 15.708 M9.742 17.208 L 9.083 17.917 9.792 17.258 C 10.450 16.645,10.577 16.500,10.450 16.500 C 10.423 16.500,10.105 16.819,9.742 17.208 M70.658 18.125 L 70.083 18.750 70.708 18.176 C 71.052 17.860,71.333 17.578,71.333 17.551 C 71.333 17.423,71.192 17.543,70.658 18.125 M7.833 18.917 C 7.428 19.329,7.135 19.667,7.181 19.667 C 7.226 19.667,7.595 19.329,8.000 18.917 C 8.405 18.504,8.699 18.167,8.653 18.167 C 8.607 18.167,8.238 18.504,7.833 18.917 M68.909 19.708 L 68.250 20.417 68.958 19.758 C 69.348 19.395,69.667 19.077,69.667 19.050 C 69.667 18.923,69.522 19.050,68.909 19.708 M118.217 19.833 C 118.217 20.337,118.248 20.544,118.286 20.292 C 118.324 20.040,118.324 19.627,118.286 19.375 C 118.248 19.123,118.217 19.329,118.217 19.833 M140.292 19.124 C 141.231 19.154,142.769 19.154,143.708 19.124 C 144.648 19.095,143.879 19.070,142.000 19.070 C 140.121 19.070,139.352 19.095,140.292 19.124 M177.875 19.119 C 178.127 19.158,178.540 19.158,178.792 19.119 C 179.044 19.081,178.838 19.050,178.333 19.050 C 177.829 19.050,177.623 19.081,177.875 19.119 M180.125 19.118 C 180.331 19.157,180.669 19.157,180.875 19.118 C 181.081 19.078,180.912 19.045,180.500 19.045 C 180.088 19.045,179.919 19.078,180.125 19.118 M240.717 19.124 C 241.708 19.154,243.283 19.154,244.217 19.124 C 245.152 19.095,244.342 19.070,242.417 19.071 C 240.492 19.071,239.727 19.095,240.717 19.124 M285.792 19.118 C 285.998 19.157,286.335 19.157,286.542 19.118 C 286.748 19.078,286.579 19.045,286.167 19.045 C 285.754 19.045,285.585 19.078,285.792 19.118 M288.708 19.115 C 288.869 19.157,289.131 19.157,289.292 19.115 C 289.452 19.073,289.321 19.039,289.000 19.039 C 288.679 19.039,288.548 19.073,288.708 19.115 M148.500 19.667 C 149.070 19.849,149.508 19.849,149.083 19.667 C 148.900 19.588,148.600 19.526,148.417 19.528 C 148.149 19.532,148.165 19.559,148.500 19.667 M271.083 19.829 L 275.417 19.917 275.500 22.320 C 275.561 24.080,275.640 24.734,275.796 24.766 C 275.913 24.789,275.931 24.770,275.837 24.724 C 275.733 24.672,275.667 23.748,275.667 22.353 C 275.667 19.398,276.126 19.659,271.008 19.704 L 266.750 19.742 271.083 19.829 M306.625 19.790 C 307.198 19.823,308.135 19.823,308.708 19.790 C 309.281 19.758,308.813 19.731,307.667 19.731 C 306.521 19.731,306.052 19.758,306.625 19.790 M6.083 20.500 C 5.725 20.867,5.504 21.160,5.591 21.153 C 5.744 21.139,6.944 19.833,6.803 19.833 C 6.765 19.833,6.441 20.133,6.083 20.500 M208.942 19.958 C 208.900 20.027,210.226 20.064,211.891 20.041 C 217.540 19.961,218.096 19.903,213.552 19.868 C 211.059 19.849,208.985 19.890,208.942 19.958 M218.208 37.706 L 218.167 55.661 213.625 55.708 L 209.083 55.756 213.630 55.794 C 217.143 55.824,218.195 55.786,218.256 55.625 C 218.300 55.510,218.316 47.392,218.292 37.583 L 218.248 19.750 218.208 37.706 M184.847 20.229 C 185.019 20.382,186.000 20.833,186.000 20.759 C 186.000 20.663,185.076 20.167,184.897 20.167 C 184.832 20.167,184.809 20.195,184.847 20.229 M280.958 20.429 C 280.312 20.779,280.385 20.900,281.042 20.566 C 281.670 20.247,281.781 20.164,281.569 20.173 C 281.485 20.177,281.210 20.292,280.958 20.429 M132.458 20.678 C 132.115 20.859,131.833 21.045,131.833 21.091 C 131.833 21.165,133.150 20.550,133.319 20.396 C 133.511 20.223,133.011 20.386,132.458 20.678 M67.167 21.250 C 66.762 21.662,66.468 22.000,66.514 22.000 C 66.560 22.000,66.928 21.662,67.333 21.250 C 67.738 20.837,68.032 20.500,67.986 20.500 C 67.940 20.500,67.572 20.837,67.167 21.250 M151.667 20.741 C 151.667 20.787,151.892 20.941,152.167 21.083 C 152.442 21.226,152.667 21.304,152.667 21.259 C 152.667 21.213,152.442 21.059,152.167 20.917 C 151.892 20.774,151.667 20.696,151.667 20.741 M295.083 21.111 C 296.006 22.021,297.171 22.988,296.583 22.356 C 296.217 21.962,295.692 21.483,295.417 21.292 C 295.142 21.102,294.992 21.020,295.083 21.111 M107.872 21.833 C 107.872 22.154,107.906 22.285,107.948 22.125 C 107.990 21.965,107.990 21.702,107.948 21.542 C 107.906 21.381,107.872 21.512,107.872 21.833 M230.740 22.208 L 230.250 22.750 230.792 22.260 C 231.297 21.804,231.410 21.667,231.281 21.667 C 231.252 21.667,231.009 21.910,230.740 22.208 M154.250 22.667 C 154.701 23.125,155.108 23.500,155.154 23.500 C 155.200 23.500,154.868 23.125,154.417 22.667 C 153.965 22.208,153.558 21.833,153.513 21.833 C 153.467 21.833,153.799 22.208,154.250 22.667 M13.909 22.708 L 13.250 23.417 13.958 22.758 C 14.617 22.145,14.743 22.000,14.617 22.000 C 14.590 22.000,14.271 22.319,13.909 22.708 M129.824 22.625 L 129.250 23.250 129.875 22.676 C 130.457 22.141,130.577 22.000,130.449 22.000 C 130.422 22.000,130.140 22.281,129.824 22.625 M254.750 22.667 C 255.108 23.033,255.438 23.333,255.484 23.333 C 255.530 23.333,255.275 23.033,254.917 22.667 C 254.559 22.300,254.228 22.000,254.182 22.000 C 254.137 22.000,254.392 22.300,254.750 22.667 M65.324 22.958 L 64.750 23.583 65.375 23.009 C 65.719 22.693,66.000 22.412,66.000 22.384 C 66.000 22.257,65.859 22.377,65.324 22.958 M169.077 23.208 L 168.250 24.083 169.125 23.256 C 169.938 22.488,170.076 22.333,169.952 22.333 C 169.926 22.333,169.532 22.727,169.077 23.208 M277.078 23.375 L 276.083 24.417 277.125 23.422 C 278.093 22.498,278.243 22.333,278.120 22.333 C 278.094 22.333,277.625 22.802,277.078 23.375 M11.824 24.625 L 11.250 25.250 11.875 24.676 C 12.219 24.360,12.500 24.078,12.500 24.051 C 12.500 23.923,12.359 24.043,11.824 24.625 M63.324 24.792 L 62.750 25.417 63.375 24.842 C 63.719 24.526,64.000 24.245,64.000 24.217 C 64.000 24.090,63.859 24.210,63.324 24.792 M106.158 25.292 L 105.583 25.917 106.208 25.342 C 106.790 24.808,106.910 24.667,106.783 24.667 C 106.755 24.667,106.474 24.948,106.158 25.292 M10.000 26.250 C 9.595 26.662,9.301 27.000,9.347 27.000 C 9.393 27.000,9.762 26.662,10.167 26.250 C 10.572 25.837,10.865 25.500,10.819 25.500 C 10.774 25.500,10.405 25.837,10.000 26.250 M61.977 26.377 C 62.047 26.448,64.425 26.485,67.261 26.461 L 72.417 26.416 67.133 26.333 C 64.227 26.287,61.907 26.307,61.977 26.377 M139.877 26.286 C 140.131 26.325,140.506 26.324,140.711 26.284 C 140.916 26.244,140.708 26.213,140.250 26.214 C 139.792 26.216,139.624 26.248,139.877 26.286 M141.795 26.287 C 142.094 26.325,142.544 26.324,142.795 26.286 C 143.045 26.248,142.800 26.217,142.250 26.218 C 141.700 26.219,141.495 26.250,141.795 26.287 M240.292 26.284 C 240.498 26.324,240.835 26.324,241.042 26.284 C 241.248 26.245,241.079 26.212,240.667 26.212 C 240.254 26.212,240.085 26.245,240.292 26.284 M242.295 26.287 C 242.594 26.325,243.044 26.324,243.295 26.286 C 243.545 26.248,243.300 26.217,242.750 26.218 C 242.200 26.219,241.995 26.250,242.295 26.287 M137.393 26.987 C 137.105 27.163,136.811 27.406,136.740 27.528 C 136.663 27.659,136.740 27.639,136.930 27.479 C 137.106 27.330,137.475 27.090,137.750 26.944 C 138.025 26.799,138.175 26.677,138.083 26.674 C 137.992 26.671,137.681 26.812,137.393 26.987 M101.460 26.951 C 101.668 26.991,101.968 26.990,102.127 26.948 C 102.286 26.906,102.117 26.874,101.750 26.875 C 101.383 26.877,101.253 26.911,101.460 26.951 M8.242 27.875 L 7.583 28.583 8.292 27.925 C 8.681 27.562,9.000 27.243,9.000 27.216 C 9.000 27.090,8.855 27.216,8.242 27.875 M146.415 27.667 C 147.206 28.591,147.217 28.601,147.036 28.250 C 146.941 28.067,146.651 27.729,146.390 27.501 L 145.917 27.085 146.415 27.667 M279.551 27.595 L 279.083 28.024 279.625 27.647 C 279.923 27.440,280.167 27.247,280.167 27.219 C 280.167 27.087,279.982 27.200,279.551 27.595 M307.500 27.325 L 309.583 27.417 309.669 36.667 L 309.754 45.917 309.794 36.742 C 309.824 29.783,309.785 27.518,309.633 27.367 C 309.496 27.229,308.805 27.177,307.425 27.200 L 305.417 27.234 307.500 27.325 M319.243 27.375 C 319.199 27.490,319.184 31.821,319.208 37.000 L 319.253 46.417 319.293 36.879 L 319.333 27.341 322.542 27.291 L 325.750 27.242 322.536 27.205 C 320.091 27.176,319.304 27.216,319.243 27.375 M70.658 27.958 L 70.083 28.583 70.708 28.009 C 71.052 27.693,71.333 27.412,71.333 27.384 C 71.333 27.257,71.192 27.377,70.658 27.958 M176.744 28.375 L 175.917 29.250 176.792 28.423 C 177.273 27.968,177.667 27.574,177.667 27.548 C 177.667 27.424,177.512 27.562,176.744 28.375 M187.083 28.333 C 187.441 28.700,187.772 29.000,187.818 29.000 C 187.863 29.000,187.608 28.700,187.250 28.333 C 186.892 27.967,186.562 27.667,186.516 27.667 C 186.470 27.667,186.725 27.967,187.083 28.333 M6.409 29.542 L 5.750 30.250 6.458 29.591 C 7.117 28.978,7.243 28.833,7.117 28.833 C 7.090 28.833,6.771 29.152,6.409 29.542 M68.909 29.542 L 68.250 30.250 68.958 29.591 C 69.617 28.978,69.743 28.833,69.617 28.833 C 69.590 28.833,69.271 29.152,68.909 29.542 M257.205 29.667 C 257.205 29.988,257.240 30.119,257.282 29.958 C 257.323 29.798,257.323 29.535,257.282 29.375 C 257.240 29.215,257.205 29.346,257.205 29.667 M299.372 30.167 C 299.372 30.488,299.406 30.619,299.448 30.458 C 299.490 30.298,299.490 30.035,299.448 29.875 C 299.406 29.715,299.372 29.846,299.372 30.167 M147.542 30.583 C 147.544 30.950,147.578 31.080,147.618 30.873 C 147.658 30.666,147.656 30.366,147.615 30.206 C 147.573 30.047,147.540 30.217,147.542 30.583 M156.908 35.667 C 156.908 38.737,156.931 39.994,156.958 38.458 C 156.986 36.923,156.986 34.410,156.958 32.875 C 156.931 31.340,156.908 32.596,156.908 35.667 M67.167 31.083 C 66.762 31.496,66.468 31.833,66.514 31.833 C 66.560 31.833,66.928 31.496,67.333 31.083 C 67.738 30.671,68.032 30.333,67.986 30.333 C 67.940 30.333,67.572 30.671,67.167 31.083 M134.417 30.500 L 133.917 30.627 134.365 30.647 C 134.612 30.658,134.860 30.592,134.917 30.500 C 134.973 30.408,134.996 30.342,134.968 30.353 C 134.940 30.364,134.692 30.430,134.417 30.500 M164.929 30.929 C 164.867 31.173,164.849 31.405,164.889 31.444 C 164.928 31.483,165.010 31.316,165.071 31.071 C 165.133 30.827,165.151 30.595,165.111 30.556 C 165.072 30.517,164.990 30.684,164.929 30.929 M4.944 30.778 C 4.723 31.000,4.842 31.166,5.208 31.147 C 5.494 31.133,5.513 31.110,5.290 31.051 C 5.128 31.009,5.039 30.905,5.091 30.821 C 5.201 30.642,5.107 30.615,4.944 30.778 M15.429 31.818 L 14.941 32.417 15.504 31.880 C 15.813 31.585,16.033 31.316,15.991 31.281 C 15.950 31.247,15.697 31.488,15.429 31.818 M289.872 32.333 C 289.872 32.654,289.906 32.785,289.948 32.625 C 289.990 32.465,289.990 32.202,289.948 32.042 C 289.906 31.881,289.872 32.012,289.872 32.333 M147.500 32.113 C 147.500 32.206,147.331 32.364,147.125 32.463 C 146.919 32.563,146.829 32.649,146.926 32.655 C 147.207 32.673,147.762 32.207,147.625 32.069 C 147.556 32.001,147.500 32.020,147.500 32.113 M65.242 32.875 L 64.583 33.583 65.292 32.925 C 65.950 32.312,66.077 32.167,65.950 32.167 C 65.923 32.167,65.605 32.485,65.242 32.875 M13.575 33.542 L 12.917 34.250 13.625 33.591 C 14.284 32.978,14.410 32.833,14.284 32.833 C 14.257 32.833,13.938 33.152,13.575 33.542 M105.518 33.728 C 105.373 33.903,105.398 34.009,105.623 34.186 C 105.889 34.395,105.895 34.390,105.690 34.127 C 105.498 33.882,105.498 33.826,105.690 33.765 C 106.369 33.549,106.404 33.526,106.062 33.513 C 105.867 33.506,105.622 33.603,105.518 33.728 M63.324 34.625 L 62.750 35.250 63.375 34.676 C 63.719 34.360,64.000 34.078,64.000 34.051 C 64.000 33.923,63.859 34.043,63.324 34.625 M174.045 34.667 C 174.045 35.079,174.078 35.248,174.118 35.042 C 174.157 34.835,174.157 34.498,174.118 34.292 C 174.078 34.085,174.045 34.254,174.045 34.667 M139.667 34.333 C 139.337 34.439,139.319 34.467,139.583 34.467 C 139.767 34.467,140.104 34.407,140.333 34.333 C 140.663 34.228,140.681 34.200,140.417 34.200 C 140.233 34.200,139.896 34.260,139.667 34.333 M290.079 44.917 C 290.079 50.783,290.099 53.159,290.125 50.196 C 290.150 47.233,290.150 42.433,290.125 39.530 C 290.099 36.626,290.078 39.050,290.079 44.917 M11.667 35.250 C 11.262 35.662,10.968 36.000,11.014 36.000 C 11.060 36.000,11.428 35.662,11.833 35.250 C 12.238 34.837,12.532 34.500,12.486 34.500 C 12.440 34.500,12.072 34.837,11.667 35.250 M87.700 35.033 C 87.548 35.185,87.510 37.690,87.540 45.492 L 87.580 55.750 87.665 45.417 L 87.750 35.083 89.500 34.991 L 91.250 34.899 89.575 34.866 C 88.455 34.844,87.834 34.900,87.700 35.033 M92.042 35.119 C 92.294 35.158,92.706 35.158,92.958 35.119 C 93.210 35.081,93.004 35.050,92.500 35.050 C 91.996 35.050,91.790 35.081,92.042 35.119 M61.491 36.292 L 60.917 36.917 61.542 36.342 C 61.885 36.026,62.167 35.745,62.167 35.717 C 62.167 35.590,62.026 35.710,61.491 36.292 M276.245 45.583 C 276.245 51.083,276.266 53.309,276.292 50.530 C 276.317 47.750,276.317 43.250,276.292 40.530 C 276.266 37.809,276.245 40.083,276.245 45.583 M132.917 36.000 C 132.707 36.090,132.676 36.143,132.833 36.143 C 132.971 36.143,133.233 36.079,133.417 36.000 C 133.627 35.910,133.658 35.857,133.500 35.857 C 133.362 35.857,133.100 35.921,132.917 36.000 M173.892 37.167 C 173.892 37.946,173.920 38.265,173.955 37.875 C 173.990 37.485,173.990 36.848,173.955 36.458 C 173.920 36.069,173.892 36.387,173.892 37.167 M189.897 37.917 C 189.897 39.017,189.924 39.445,189.957 38.868 C 189.990 38.292,189.989 37.392,189.956 36.868 C 189.923 36.345,189.897 36.817,189.897 37.917 M9.833 36.917 C 9.428 37.329,9.135 37.667,9.181 37.667 C 9.226 37.667,9.595 37.329,10.000 36.917 C 10.405 36.504,10.699 36.167,10.653 36.167 C 10.607 36.167,10.238 36.504,9.833 36.917 M164.223 37.500 C 164.223 38.188,164.252 38.469,164.288 38.125 C 164.324 37.781,164.324 37.219,164.288 36.875 C 164.252 36.531,164.223 36.813,164.223 37.500 M110.000 37.583 C 110.498 38.087,110.943 38.500,110.989 38.500 C 111.034 38.500,110.665 38.087,110.167 37.583 C 109.669 37.079,109.224 36.667,109.178 36.667 C 109.132 36.667,109.502 37.079,110.000 37.583 M230.958 36.929 C 230.312 37.279,230.385 37.400,231.042 37.066 C 231.670 36.747,231.781 36.664,231.569 36.673 C 231.485 36.677,231.210 36.792,230.958 36.929 M97.667 37.583 C 97.978 37.904,98.270 38.167,98.315 38.167 C 98.361 38.167,98.144 37.904,97.833 37.583 C 97.522 37.262,97.230 37.000,97.185 37.000 C 97.139 37.000,97.356 37.262,97.667 37.583 M59.742 37.875 L 59.083 38.583 59.792 37.925 C 60.450 37.312,60.577 37.167,60.450 37.167 C 60.423 37.167,60.105 37.485,59.742 37.875 M8.075 38.542 L 7.417 39.250 8.125 38.591 C 8.784 37.978,8.910 37.833,8.784 37.833 C 8.757 37.833,8.438 38.152,8.075 38.542 M228.577 38.708 L 227.750 39.583 228.625 38.756 C 229.106 38.301,229.500 37.908,229.500 37.881 C 229.500 37.757,229.346 37.895,228.577 38.708 M248.057 40.083 C 248.058 40.817,248.087 41.096,248.122 40.704 C 248.157 40.312,248.157 39.712,248.121 39.371 C 248.085 39.029,248.057 39.350,248.057 40.083 M57.824 39.625 L 57.250 40.250 57.875 39.676 C 58.219 39.360,58.500 39.078,58.500 39.051 C 58.500 38.923,58.359 39.043,57.824 39.625 M174.048 39.917 C 174.049 40.375,174.081 40.543,174.120 40.289 C 174.158 40.036,174.157 39.661,174.117 39.456 C 174.078 39.251,174.046 39.458,174.048 39.917 M6.284 40.132 C 5.944 40.480,5.667 40.817,5.667 40.882 C 5.667 41.185,56.450 41.012,56.680 40.708 C 56.868 40.460,56.866 40.448,56.667 40.625 C 56.482 40.790,51.131 40.833,31.100 40.833 L 5.766 40.833 6.417 40.167 C 6.775 39.800,7.030 39.500,6.984 39.500 C 6.938 39.500,6.623 39.784,6.284 40.132 M257.235 43.417 C 257.235 44.975,257.260 45.635,257.291 44.883 C 257.321 44.131,257.321 42.856,257.291 42.050 C 257.260 41.243,257.235 41.858,257.235 43.417 M236.324 42.125 L 235.750 42.750 236.375 42.176 C 236.957 41.641,237.077 41.500,236.949 41.500 C 236.922 41.500,236.640 41.781,236.324 42.125 M147.550 42.667 C 147.550 43.171,147.581 43.377,147.619 43.125 C 147.658 42.873,147.658 42.460,147.619 42.208 C 147.581 41.956,147.550 42.162,147.550 42.667 M134.717 45.000 C 134.717 45.504,134.748 45.710,134.786 45.458 C 134.824 45.206,134.824 44.794,134.786 44.542 C 134.748 44.290,134.717 44.496,134.717 45.000 M225.712 44.833 C 225.712 45.246,225.745 45.415,225.784 45.208 C 225.824 45.002,225.824 44.665,225.784 44.458 C 225.745 44.252,225.712 44.421,225.712 44.833 M342.109 44.458 C 342.067 44.527,346.506 44.563,351.974 44.539 C 361.187 44.498,361.932 44.515,362.125 44.779 C 362.240 44.936,362.333 44.989,362.333 44.899 C 362.333 44.352,361.995 44.333,352.060 44.333 C 346.629 44.333,342.152 44.390,342.109 44.458 M156.890 47.250 C 156.891 47.983,156.920 48.263,156.956 47.871 C 156.991 47.479,156.990 46.879,156.954 46.537 C 156.919 46.196,156.890 46.517,156.890 47.250 M186.991 46.958 L 186.417 47.583 187.042 47.009 C 187.385 46.693,187.667 46.412,187.667 46.384 C 187.667 46.257,187.526 46.377,186.991 46.958 M176.333 46.552 C 176.333 46.581,176.577 46.825,176.875 47.094 L 177.417 47.583 176.927 47.042 C 176.471 46.537,176.333 46.423,176.333 46.552 M225.712 47.167 C 225.712 47.579,225.745 47.748,225.784 47.542 C 225.824 47.335,225.824 46.998,225.784 46.792 C 225.745 46.585,225.712 46.754,225.712 47.167 M246.000 47.583 C 245.595 47.996,245.301 48.333,245.347 48.333 C 245.393 48.333,245.762 47.996,246.167 47.583 C 246.572 47.171,246.865 46.833,246.819 46.833 C 246.774 46.833,246.405 47.171,246.000 47.583 M136.083 48.333 C 136.441 48.700,136.772 49.000,136.818 49.000 C 136.863 49.000,136.608 48.700,136.250 48.333 C 135.892 47.967,135.562 47.667,135.516 47.667 C 135.470 47.667,135.725 47.967,136.083 48.333 M144.174 48.600 C 143.674 48.912,143.340 49.167,143.433 49.167 C 143.634 49.167,145.167 48.212,145.167 48.087 C 145.167 47.975,145.230 47.943,144.174 48.600 M178.833 48.417 C 179.063 48.548,179.325 48.655,179.417 48.655 C 179.508 48.655,179.396 48.548,179.167 48.417 C 178.938 48.286,178.675 48.178,178.583 48.178 C 178.492 48.178,178.604 48.286,178.833 48.417 M321.627 48.785 C 321.834 48.824,322.134 48.823,322.294 48.781 C 322.453 48.739,322.283 48.707,321.917 48.709 C 321.550 48.711,321.420 48.745,321.627 48.785 M181.544 49.120 C 181.797 49.158,182.172 49.157,182.377 49.117 C 182.582 49.078,182.375 49.046,181.917 49.048 C 181.458 49.049,181.291 49.081,181.544 49.120 M242.917 49.423 C 242.642 49.549,242.529 49.652,242.667 49.653 C 242.804 49.654,243.104 49.548,243.333 49.417 C 243.860 49.115,243.579 49.120,242.917 49.423 M325.879 49.833 C 325.879 50.246,325.911 50.415,325.951 50.208 C 325.991 50.002,325.991 49.665,325.951 49.458 C 325.911 49.252,325.879 49.421,325.879 49.833 M139.627 49.951 C 139.834 49.991,140.134 49.990,140.294 49.948 C 140.453 49.906,140.283 49.874,139.917 49.875 C 139.550 49.877,139.420 49.911,139.627 49.951 M240.042 49.948 C 240.202 49.990,240.465 49.990,240.625 49.948 C 240.785 49.906,240.654 49.872,240.333 49.872 C 240.012 49.872,239.881 49.906,240.042 49.948 M190.287 50.786 C 190.425 50.884,190.507 51.670,190.544 53.257 L 190.598 55.583 190.591 53.180 C 190.585 51.190,190.540 50.766,190.333 50.709 C 190.153 50.660,190.140 50.682,190.287 50.786 M169.333 52.250 C 169.831 52.754,170.276 53.167,170.322 53.167 C 170.368 53.167,169.998 52.754,169.500 52.250 C 169.002 51.746,168.557 51.333,168.511 51.333 C 168.466 51.333,168.835 51.746,169.333 52.250 M228.417 53.167 C 228.775 53.533,229.105 53.833,229.151 53.833 C 229.197 53.833,228.941 53.533,228.583 53.167 C 228.225 52.800,227.895 52.500,227.849 52.500 C 227.803 52.500,228.059 52.800,228.417 53.167 M246.904 53.219 C 246.530 53.514,246.042 53.888,245.820 54.051 C 245.427 54.341,245.429 54.341,245.935 54.068 C 246.436 53.798,247.836 52.677,247.667 52.681 C 247.621 52.683,247.277 52.925,246.904 53.219 M244.792 54.595 C 244.169 54.933,244.207 55.074,244.833 54.750 C 245.108 54.608,245.333 54.456,245.333 54.412 C 245.333 54.305,245.315 54.311,244.792 54.595 M185.167 55.000 C 184.846 55.176,184.643 55.323,184.717 55.326 C 184.893 55.336,185.833 54.847,185.833 54.746 C 185.833 54.637,185.824 54.640,185.167 55.000 M143.333 55.167 C 143.012 55.342,142.810 55.489,142.883 55.493 C 143.060 55.502,144.000 55.013,144.000 54.912 C 144.000 54.803,143.990 54.807,143.333 55.167 M249.838 55.271 C 249.824 55.787,250.310 55.839,254.757 55.794 C 258.214 55.760,259.232 55.702,259.265 55.538 C 259.289 55.421,259.270 55.402,259.224 55.496 C 259.056 55.834,250.213 55.718,250.013 55.375 C 249.920 55.215,249.841 55.168,249.838 55.271 M377.000 55.387 C 377.000 55.636,376.505 55.666,371.792 55.708 L 366.583 55.755 371.797 55.794 C 377.067 55.834,377.658 55.769,377.104 55.215 C 377.047 55.158,377.000 55.235,377.000 55.387 M122.000 55.472 C 122.000 55.616,120.487 55.677,116.208 55.706 L 110.417 55.745 116.156 55.792 C 121.541 55.835,122.493 55.771,122.114 55.392 C 122.051 55.329,122.000 55.365,122.000 55.472 M80.292 55.791 C 81.598 55.819,83.735 55.819,85.042 55.791 C 86.348 55.763,85.279 55.740,82.667 55.740 C 80.054 55.740,78.985 55.763,80.292 55.791 M152.052 55.791 C 153.318 55.820,155.343 55.820,156.552 55.791 C 157.761 55.763,156.725 55.740,154.250 55.740 C 151.775 55.740,150.786 55.763,152.052 55.791 M192.885 55.791 C 194.059 55.820,195.934 55.820,197.051 55.791 C 198.169 55.762,197.208 55.739,194.917 55.739 C 192.625 55.739,191.711 55.763,192.885 55.791 M269.135 55.791 C 270.447 55.820,272.547 55.819,273.802 55.791 C 275.057 55.763,273.983 55.740,271.417 55.740 C 268.850 55.740,267.823 55.763,269.135 55.791 M292.635 55.791 C 293.947 55.820,296.047 55.819,297.302 55.791 C 298.557 55.763,297.483 55.740,294.917 55.740 C 292.350 55.740,291.323 55.763,292.635 55.791 M330.292 55.791 C 331.690 55.819,333.977 55.819,335.375 55.791 C 336.773 55.763,335.629 55.741,332.833 55.741 C 330.037 55.741,328.894 55.763,330.292 55.791 M176.000 56.167 C 176.229 56.240,176.567 56.300,176.750 56.300 C 177.014 56.300,176.997 56.272,176.667 56.167 C 176.438 56.093,176.100 56.033,175.917 56.033 C 175.653 56.033,175.670 56.061,176.000 56.167 M315.917 56.167 C 316.100 56.245,316.362 56.310,316.500 56.310 C 316.658 56.310,316.627 56.257,316.417 56.167 C 316.233 56.088,315.971 56.023,315.833 56.023 C 315.676 56.023,315.707 56.076,315.917 56.167 M322.042 56.282 C 322.202 56.323,322.465 56.323,322.625 56.282 C 322.785 56.240,322.654 56.205,322.333 56.205 C 322.012 56.205,321.881 56.240,322.042 56.282 M134.955 56.454 C 135.250 56.490,135.775 56.491,136.121 56.455 C 136.467 56.419,136.225 56.389,135.583 56.388 C 134.942 56.387,134.659 56.417,134.955 56.454 M138.128 56.454 C 138.428 56.491,138.878 56.490,139.128 56.452 C 139.378 56.414,139.133 56.384,138.583 56.385 C 138.033 56.386,137.828 56.417,138.128 56.454 M178.375 56.456 C 178.902 56.490,179.765 56.490,180.292 56.456 C 180.819 56.423,180.387 56.396,179.333 56.396 C 178.279 56.396,177.848 56.423,178.375 56.456 M235.455 56.454 C 235.750 56.490,236.275 56.491,236.621 56.455 C 236.967 56.419,236.725 56.389,236.083 56.388 C 235.442 56.387,235.159 56.417,235.455 56.454 M238.628 56.454 C 238.928 56.491,239.378 56.490,239.628 56.452 C 239.878 56.414,239.633 56.384,239.083 56.385 C 238.533 56.386,238.328 56.417,238.628 56.454 M317.460 56.451 C 317.668 56.491,317.968 56.490,318.127 56.448 C 318.286 56.406,318.117 56.374,317.750 56.375 C 317.383 56.377,317.253 56.411,317.460 56.451 M320.292 56.451 C 320.498 56.491,320.835 56.491,321.042 56.451 C 321.248 56.411,321.079 56.379,320.667 56.379 C 320.254 56.379,320.085 56.411,320.292 56.451 M318.792 56.618 C 318.998 56.657,319.335 56.657,319.542 56.618 C 319.748 56.578,319.579 56.545,319.167 56.545 C 318.754 56.545,318.585 56.578,318.792 56.618 " stroke="none" fill="#848484" fill-rule="evenodd"></path></g></svg>
